<?xml version="1.0" encoding="UTF-8"?><svg id="Layer_1" xmlns="http://www.w3.org/2000/svg" viewBox="0 0 411.78 239.44"><path d="M409.6,106.42l2.18-3.1-2.9-.1c-.78-.6-.46-4.54-.65-5.76-.59-3.85-3-10.51-4.46-14.6-2.86-8.02-6.79-17.12-11.12-24.29-1.54-2.55-6.57-8.45-7.26-10.55-.92-2.8,1.05-1.49,1.13-3.47-2.33.79-4.26,2.01-4.03-1.92l3.57-2.83c-.66-.93-.52-.61-1.21-.35-1.25.49-3.62,2.95-4.71,2.37-1.73-.92-3.6-6.06-6.37-6.56-.95-1.68-7.7-6.17-7.85-7.45-.13-1.11,2.5-2.99,3.48-3.73l7.95-6.78c-3.2,2.27-12.05,8.63-13.03,8.78-2.27.36-6.52-5.04-8.45-6.21C321.77-.88,283.33-5.85,245.93,7.25c-27.19-9.59-56.09-9.83-84.38.3C112.05-10.85,54.22,5.46,21.69,50.57-3.58,85.6-6.96,133.58,12.56,172.74c2.69,5.4,7.06,10.65,9.51,15.57,1.13,2.27-.04,3.94,3.26,4.42.82,2.45,9.8,10.22,9.82,11.76,0,.66-.46,1.16-.96,1.46l2.56.29c1.55,0,1.39,2.28,2.04,2.74.51.37,1.66.2,2.56.7,5.94,3.27,11.75,9.26,18.65,13.08,4.05,2.24,8.22,4.24,12.17,6.68l3,1.77,2.69-.07.5,1.57c3.89-.5,7.66,1.66,11.34,2.54,21.08,5.03,41,5.14,62.11.28,2.5-.58,7.01-2.47,9.98-3.06l.08.25c3.89-.5,7.66,1.66,11.34,2.54,2.68.64,5.34,1.2,7.99,1.68,1.89.53,3.64.96,5.08,1.18,12.42,1.9,24.98,1.71,37.2-.36,3.91-.56,7.85-1.3,11.83-2.22,3-.69,8.91-3.28,11.57-3.25,4.7.06,16.68,4.88,22.91,5.83,62.65,9.56,134.15-33.46,140.05-107,.49-6.09.51-11.76.03-17.49-.2-2.38-.58-4.9-.26-7.22h-.01ZM206.19,35.91c.65-.53,1.21-.93,1.58-1.11,2.06-.99,9-1.11,11.58-1.05,1.05.02,5.02.17,5.3,1.12.44,1.5-4.18,7.95-5.18,9.73-.68,1.21-1.18,2.75-1.79,4.12-3.5-4.53-7.37-8.8-11.5-12.8h0ZM190.42,49.2c-.52-1.17-.97-2.54-1.76-3.84-2.08-3.42-5.83-6.7-5.88-11.3,5.74-.14,11.44-.71,17.11.53.6.47,1.19.96,1.78,1.45-4.05,4.08-7.82,8.47-11.26,13.16h0ZM161.3,16.34v15.47l-.69.75h-13.71l-.63-1.18c.98-2.77,3.32-4.38,4.98-6.56.9-1.18,1.5-2.92,2.56-4.19.56-.67,5.66-5.23,6.1-5.34.53-.14,1.39.93,1.39,1.05h0ZM136.47,25.16c6.07-3.89,12.49-6.97,19.11-9.58l-.2,1.78-12.59,15.2h-14.4c-.18-1.15.26-1.53.9-2.26.33-.38.87-.84,1.51-1.33.73-.53,1.47-1.05,2.21-1.56,1.32-.88,2.65-1.71,3.47-2.24h-.01ZM162.67,15.84l1.13-.74c2.69,2.37,5.19,5,7.57,7.72,1.48,1.68,5.4,6.06,6.14,7.75.29.66.29,1.28.24,1.99h-13.94c-.1,0-1.14-1.56-1.14-1.75v-14.97h0ZM168.16,16.82c-.1-.84-.04-.79.68-.75,1.41.08,6.3,2.19,7.86,2.91,6.52,3.01,12.9,7.71,18.87,11.83l.46,1.74h-15.31s-12.56-15.73-12.56-15.73ZM184.01,18.49c-2.89-1.83-8.21-4.07-10.52-5.98-.52-.43-.94-.52-.76-1.41,12.3-1.63,33.43-2.34,47.76-1.86,5.02.5,9.84,1.13,14.26,1.86.99,1.5-4.9,3.49-5.43,3.79-9.04,5.2-17.64,11.52-25.35,18.9-6.25-5.78-13.02-10.92-19.96-15.3h0ZM211.9,32.56c-.18-1.15.26-1.53.9-2.26,1.24-1.43,5.42-4,7.19-5.13,6.07-3.89,12.49-6.97,19.11-9.58l-.2,1.78-12.59,15.2h-14.41ZM234.75,24.82c.9-1.18,1.5-2.92,2.56-4.19.56-.67,5.66-5.23,6.1-5.34.53-.14,1.39.93,1.39,1.05v15.47l-.69.75h-13.71l-.63-1.18c.98-2.77,3.32-4.38,4.98-6.56h0ZM246.18,15.84l1.13-.74c2.69,2.37,5.19,5,7.57,7.72,1.48,1.68,5.4,6.06,6.14,7.75.29.66.29,1.28.24,1.99h-13.94c-.1,0-1.14-1.56-1.14-1.75v-14.97h0ZM251.67,16.82c-.03-.24-.04-.41-.03-.52,9.63,4.29,18.6,10.13,26.48,16.26h-13.88l-12.56-15.73h0ZM129.76,208.25c.46-.7,13.63-.83,14.98-.14l11.7,14.43c-9.48-3.26-18.48-7.69-26.66-13.58-.07-.17-.09-.38-.02-.71h0ZM191.62,191.88c3.39,4.46,7.13,8.62,11.13,12.48-.68.57-1.34,1.17-1.9,1.89h-16.69c-.08-.72,0-1.3.25-1.97.23-.63,5.04-8.86,7.21-12.4h0ZM195.36,207.74c.62.15,1.15-.06,1.59.75-7.59,7.56-17.21,11.87-26.74,15.71-1.62-1.46-.03-1.45.52-2.16l11.63-14.01c2.33-1.34,10.26-.94,13-.29h0ZM178.94,209.28c-.38,1.47-4.47,5.81-5.6,7.13-2.53,2.96-5.3,6.83-8.84,8.31-.59-.57-.74-14.55-.22-15.96.14-.38.63-.73.89-1.06,2.99.41,5.85-.53,8.72-.48,1.4.02,5.54.18,5.05,2.06ZM184.85,221.73c7-4.37,13.81-9.5,20.1-15.3,9.27,8.51,19.8,15.47,30.72,20.79.15,1.22,0,.79-.64,1.04-3.4,1.36-12.53,1.79-16.51,1.94-14.47.56-29.41-.12-43.8-2.86,1.71-1.52,7.86-4.21,10.12-5.62h0ZM218.57,191.68c1.36,2.27,2.61,5.03,3.19,6.05.37.65,1.07,1.12,1.49,1.87.42.76,2.67,4.68,2.75,4.99.18.68-.21,1.66-.61,1.66h-15.54c-.82-.67-1.65-1.37-2.5-2.09,4.01-3.89,7.78-8.06,11.22-12.49h0ZM262.45,209.28c-.38,1.47-4.47,5.81-5.6,7.13-2.53,2.96-5.3,6.83-8.84,8.31-.59-.57-.74-14.55-.22-15.96.14-.38.63-.73.89-1.06,2.99.41,5.85-.53,8.72-.48,1.4.02,5.54.18,5.05,2.06h0ZM265.87,208.03c2.33-1.34,10.26-.94,13-.29.62.15,1.15-.06,1.59.75-7.59,7.56-17.21,11.87-26.74,15.71-1.62-1.46-.03-1.45.52-2.16l11.63-14.01h0ZM246.66,222.49c-.1.88-.36,2.11-1.42,2.03-.92-.27-6.11-5.36-7.13-6.47-1.05-1.14-7.18-8.62-7.02-9.55.12-.65,1.08-.71,1.58-.78,4.04-.55,8.5.12,12.61.25,1.59,1.16,1.64,12.26,1.37,14.52h.01ZM240.69,223.46c-.8,1.2-.7.39-1.14.27-7.21-2.05-19.59-9.06-25.53-14.07-.51-.43-.94-.5-.76-1.41.46-.7,13.63-.83,14.98-.14l12.45,15.35ZM163.15,222.49c-.08.69-.26,1.58-.84,1.9-.47-.14-.94-.27-1.41-.41-1.78-1.39-5.46-5.02-6.3-5.93-1.05-1.14-7.18-8.62-7.02-9.55.12-.65,1.08-.71,1.58-.78,4.04-.55,8.5.12,12.61.25,1.59,1.16,1.64,12.26,1.37,14.52h.01ZM268.33,230.23c-1.3-.07-9.85-.95-10.28-1.25-.72-.5-.55-.92.03-1.5,1.49-1.49,7.95-4.3,10.28-5.75,14.61-9.12,28.42-21.55,38.37-36.47.8-1.2,5.07-7.57,4.42-8.84h-1.43c-1.81,1.09-5.27,9.93-8.1,10.74-1.18.34-2.52-.32-3.31.88,2.52,1.74.61,3.62-.92,5.49-2.07,2.52-5.81,6.33-8.22,8.49-1.59,1.43-3.44,2.51-4.81,4.24h-16.69c-.08-.72,0-1.3.25-1.97.29-.79,7.7-13.38,8.23-13.98.97-1.09,2.12-1.06,2.88-2.26-2.47-3.37,2.82-7.49,2.13-11.24-2.88,2.18-2.92,7.41-5.34,10.38l-5.39.61c.4,1.08,1.96.06,3.01.95.37.32.61.8.66,1.32.21,2.45-7.61,14.21-9.84,16.2h-16l-.69-.75v-15.47c0-.19.53-1.13.77-1.29.8-.53,2.29,0,2.43-.96-5.79.39-1.65-6.65-3.89-9.98l-1.08,4.3-.26,4.71c-.12.19-3.8.97-4.14.97h-7.54v.5h10.29c.11,0,1.38,1.46,1.54,1.81.74,1.57.8,11.74.54,13.93-.24,2.04-.83,2.07-2.51,2.25-2.95.32-10.94.42-13.76,0-2.19-.33-3.97-4.7-5.25-6.64-.64-.98-2.19-2.79-2.72-3.74-.46-.83-1.97-3.45-2.47-5.41.58-.77,1.16-1.55,1.72-2.34l2.57-.36-2.07-.35c.51-.72,1.01-1.45,1.5-2.18.8-1.2,5.07-7.57,4.42-8.84h-1.43c-1.7,1.02-4.85,8.87-7.57,10.5l-.59-.1c-2.25-1.37-3.83-9.4-5.01-10.01-.87-.45-.73.77-.69,1.25.17,1.88,4.03,8.13,3.19,9.2-3.96,1.49-8.25-.25-12.1.02-.52.04-2.05.16-2.05,1h13.73c2.01,1.67.22,3.46-1.24,5.24-2.07,2.52-5.81,6.33-8.22,8.49-.13.12-.27.23-.41.35-2.66-2.33-5.31-4.8-7.54-7.32-.68-.77-3.55-4.23-3.75-5.72.34-.19.67-.37.97-.62l4.63-.43c.03-.32-.61-.99-.69-.99-.94,0-2.36.1-3.72.14-1.49-3.25,3.14-7.1,2.49-10.62-2.88,2.18-2.92,7.41-5.34,10.38l-.41.05c-2.06-.78-5.9-9.03-7.91-10.81h-1.61c-.12.49,0,1.27.35,2.06.88,2.01,3.5,5.93,5.78,9.14l-1.59.18c.3.8,1.23.45,2.12.57.55.77,1.06,1.48,1.52,2.09-.48,3.12-7.69,13.9-9.81,15.8h-16l-.69-.75v-15.47c0-.19.53-1.13.77-1.29.8-.53,2.29,0,2.43-.96-5.79.39-1.65-6.65-3.89-9.98l-1.08,4.3-.25,4.71c-.12.19-3.8.97-4.14.97h-7.54v.5h10.29c.11,0,1.38,1.46,1.54,1.81.74,1.57.8,11.74.54,13.93-.24,2.04-.83,2.07-2.51,2.25-2.95.32-10.94.42-13.76,0-2.19-.33-3.97-4.7-5.25-6.64-.64-.98-2.19-2.79-2.72-3.74-.69-1.25-3.74-6.49-2.23-7.55l4.04-.57-5.74-.98c-2.25-1.37-3.83-9.4-5.01-10.01-.87-.45-.73.77-.69,1.25.17,1.88,4.03,8.13,3.19,9.2-3.96,1.49-8.25-.25-12.1.02-.52.04-2.05.16-2.05,1h13.94c2.11,0,5.38,7.59,6.43,9.45.37.65,1.07,1.12,1.49,1.87.42.76,2.67,4.68,2.75,4.99.18.68-.21,1.66-.61,1.66h-15.54c-1.93-1.59-3.97-3.31-5.96-5.1-3.31-3.15-6.43-6.59-9.33-10.39-.51-.89-.78-1.66-.48-1.98l5.49-.51c.03-.32-.61-.99-.69-.99-1.8,0-5.37.36-6.86,0l-2.56-2.69c-1.92-2.82-4.11-6.97-5.47-8.18h-1.61c-.05.2-.05.46-.02.74l-.7-.74c.26.43.53.85.8,1.28.06.25.15.51.26.78.98,2.24,4.11,6.82,6.52,10.18.87,2.08,0,3.6,3.05,4.08.05.06.1.13.15.19.51,1.16,2.46,3.26,4.5,5.39,1.29,1.45,2.61,2.87,3.97,4.24.75.88,1.25,1.59,1.26,1.94,0,.66-.46,1.16-.96,1.46l2.56.29c1.55,0,1.39,2.28,2.04,2.74.51.37,1.66.2,2.56.7.33.18.66.37.98.57,3.88,3.23,7.94,6.2,12.12,8.91,1.78,1.3,3.62,2.53,5.54,3.6,2.88,1.59,5.81,3.06,8.68,4.66.1.93-.07.59-.66.82-3.4,1.36-12.53,1.79-16.51,1.94-51.5,1.98-114-29-128.18-87.13C-8.35,80.84,36.69,31.29,88.06,15.73c20.57-6.23,42.06-8.13,63.18-4.63.22.33.09.68-.22,1.04-17.67,8.5-33.55,21.41-45.82,38.43-3.19,4.42-6.03,9.05-8.52,13.85,1.02-1.52,2.08-3.03,3.17-4.52-.55.96-.99,1.78-1.2,2.34-.28.76-.6,1.3-.44,2.19h1.01c2.12-1.49,6.04-9.11,6.99-9.91,1.28-1.08,4.06-1.16,4.35-1.49.89-1.03-1.6-1.09-1.36-2.22,1.16-.91,1.48-2.41,2.28-3.51,1.76-2.42,10.48-11.38,12.8-12.48,2.06-.99,9-1.11,11.58-1.05,1.05.02,5.02.17,5.3,1.12.44,1.5-4.18,7.95-5.18,9.73-1.74,3.11-2.29,8.37-6.67,7.44-.26,1.47,1.35.95,1.42,2.24.16,2.99-2.6,5.47-2.8,8.48l1.15.27c1.54-3.78,2.64-8.08,6.17-10.27.11-.58-.9-1.18-.85-1.89.03-.35,2.6-5.31,3.06-6.16,1.85-3.46,4.21-6.62,6.11-10.04,5.8-.7,11.97-1.1,17.73-.11v16.22c0,1.29-3.1,1.18-3.2,1.5-.36,1.18,1.49.59,2.28,1,.22.11.92.91.92.99v8.98l1.14.75c1.3-.3.46-7.18.67-8.76.14-1.11.94-1.91.95-2.48,0-.83-1.2-1.32-1.41-2.96-.34-2.72.11-10.61.46-13.53.17-1.44.61-1.94,1.83-2.5l13.53.25c.76-.11,1.09.38,1.6.75,1.2.86,5.35,7.4,6.3,9.09.45.81,3.18,6.05,3.25,6.44v.02c-.41.58-.83,1.15-1.23,1.74,0,0-.02.03-.03.04l-6.49.42c-.03.32.61.99.69.99h4.85c-1.79,2.66-4.61,7-5.25,8.71-.28.76-.6,1.3-.44,2.19h1.01c2.12-1.49,6.04-9.11,6.99-9.91.32-.27.75-.48,1.2-.65,1.46,1.46,3.7,7.27,4.45,8.66.35.65-.08,1.26,1.13.98-.36-3.5-3.2-6.32-2.72-9.96,1.05,0,2.4.05,2.26-1.51-.82.15-1.49.18-2.08.13-.49-.37-1.4-.66-1.26-1.36,1.16-.91,1.48-2.41,2.28-3.51,1.18-1.62,5.49-6.18,8.9-9.34,4.3,3.86,8.24,8.22,11.82,12.85.14.65-.6,1.06-1.59,1.32-.39.04-.82.02-1.3-.08-.02.13-.02.23,0,.33-1.08.15-2.15.18-2.59.17.86,1.13,2.25,1.14,3.73,1.06.15.16.27.36.28.68.16,2.99-2.6,5.47-2.8,8.48l1.15.27c1.33-3.26,2.34-6.92,4.86-9.27.14.04.28.09.42.15,2.03.9,5.46,8.44,7.42,10.37l1.16-.26c.39-.48.27-1.07.13-1.64-.41-1.66-5.88-9.64-7.22-11.46-.31-.42-.62-.83-.94-1.24.78-1.62,2.21-4.36,2.54-4.97,1.85-3.46,4.21-6.62,6.11-10.04,5.8-.7,11.97-1.1,17.73-.11v16.22c0,1.29-3.1,1.18-3.2,1.5-.36,1.18,1.49.59,2.28,1,.22.11.92.91.92.99v8.98l1.14.75c1.3-.3.46-7.18.67-8.76.14-1.11.94-1.91.95-2.48,0-.83-1.2-1.32-1.41-2.96-.34-2.72.11-10.61.46-13.53.17-1.44.61-1.94,1.83-2.5l13.53.25c.76-.11,1.09.38,1.6.75,1.2.86,5.35,7.4,6.3,9.09.45.81,3.18,6.05,3.25,6.44.1.56.02,1.15.02,1.72l-7.77.51c-.03.32.61.99.69.99h7.77c1.35,0,4.18,7.41,5.03,9,.35.65-.08,1.26,1.13.98-.36-3.5-3.2-6.32-2.72-9.96,1.05,0,2.4.05,2.26-1.51-5.6,1.03-5.21-3.09-7.38-6.67-2.08-3.42-5.83-6.7-5.88-11.3,4.6-.11,9.18-.49,13.74,0,7.53,6.03,13.97,12.23,18.93,17.41-.96.94-4.38,1.07-5.24,1.05,1.59,2.09,4.95.35,7.46,1.3,1.03,1.11,1.98,2.16,2.85,3.13,1.69,2.61,3.52,6.08,4.76,7.3l1.16-.26c.39-.48.27-1.07.13-1.64-.06-.25-.25-.66-.51-1.16.07-.88.13-1.74-.43-2.66-1.54-2.55-6.57-8.45-7.26-10.55-.92-2.8,1.05-1.49,1.13-3.47-2.33.79-4.26,2.01-4.03-1.92l3.57-2.83c-.66-.93-.52-.61-1.21-.35-1.25.49-3.62,2.95-4.71,2.37-1.73-.92-3.6-6.06-6.37-6.56-.95-1.68-7.7-6.17-7.85-7.45-.13-1.11,2.5-2.99,3.48-3.73l7.95-6.78c-3.2,2.27-12.05,8.63-13.03,8.78-2.27.36-6.52-5.04-8.45-6.21-5.28-3.22-10.67-6.05-16.15-8.5,0-.08.02-.17.04-.27,13.82-1.84,28.85-2.39,42.69-.45,46.63,6.53,103.03,45.66,106.78,101.53,5.39,80.3-73.73,121.61-137.38,118.06l.03.02Z"/><path d="M47.87,68.02l-9.19,31.57,30.42.57-22.95,72.32,38.32-.17,23.09-72.62,23.91.51,11.1-32.17H47.87Z"/><path d="M144.65,67.77l.81,104.31,35.11.2,25.77-46.68,1.01,46.68h31.65l57.64-104.51-39.16.2-21.51,42.62.4-42.41h-33.08l-24.15,44.65.2-44.85-34.71-.2h.01Z"/><path d="M363.22,67.57l-56.42.81-55.4,103.89,37.55.61,9.34-17.65,30.44-.2v17.85h34.49v-105.32ZM328.11,98.41l-.61,32.06h-16.77c-.02.06-.08.18-.08.2v-.2h.08c.86-2.28,17.37-32.06,17.37-32.06h.01Z"/></svg>