<?xml version="1.0" encoding="UTF-8"?><svg id="Layer_1" xmlns="http://www.w3.org/2000/svg" viewBox="0 0 308.13 99.69"><path d="M8.7.43L0,30.31l28.79.54L7.07,99.3l36.27-.16,21.86-68.74,22.63.48L98.34.43H8.7Z"/><path d="M100.3.19l.77,98.73,33.23.19,24.39-44.18.96,44.18h29.96L244.17.19l-37.07.19-20.36,40.34.38-40.14h-31.31l-22.86,42.26.19-42.45-32.85-.19h0Z"/><path d="M308.13,0l-53.4.77-52.44,98.34,35.54.58,8.84-16.71,28.81-.19v16.9h32.65V0ZM274.9,29.19l-.58,30.35h-15.87c-.02.06-.08.17-.08.19v-.19h.08c.81-2.16,16.44-30.35,16.44-30.35h0Z"/></svg>