<?xml version="1.0" encoding="UTF-8"?>
<svg id="Layer_1" xmlns="http://www.w3.org/2000/svg" version="1.1" viewBox="0 0 309.3 100.7">
  <!-- Generator: Adobe Illustrator 29.4.0, SVG Export Plug-In . SVG Version: 2.1.0 Build 152)  -->
  <defs>
    <style>
      .st0 {
        fill: none;
        stroke: #000;
        stroke-miterlimit: 10;
      }
    </style>
  </defs>
  <path class="st0" d="M9.4.9L.7,30.8l28.8.5L7.7,99.8l36.3-.2,21.9-68.7,22.6.5L99,.9H9.4Z"/>
  <path class="st0" d="M101,.7l.8,98.7,33.2.2,24.4-44.2,1,44.2h30L244.8.7l-37.1.2-20.4,40.3.4-40.1h-31.3l-22.9,42.3.2-42.5-32.8-.2h0Z"/>
  <path class="st0" d="M308.8.5l-53.4.8-52.4,98.3,35.5.6,8.8-16.7,28.8-.2v16.9h32.6V.5ZM275.6,29.7l-.6,30.4h-15.9c0,0,0,.2,0,.2v-.2h0c.8-2.2,16.4-30.4,16.4-30.4h0Z"/>
</svg>