<?xml version="1.0" encoding="UTF-8"?><svg id="Layer_1" xmlns="http://www.w3.org/2000/svg" viewBox="0 0 1244.55 1074.67"><defs><style>.cls-1,.cls-2{fill:none;stroke:#201f1f;stroke-width:3px;}.cls-2{stroke-linejoin:round;}</style></defs><path class="cls-1" d="M450.98,68.84s-94.8-44.4-204-19.2c-109.2,25.2-169.2,94.8-157.8,180,11.4,85.2,22.2,199.2,143.4,229.2,0,0,120,13.2,171.6-4.2,51.6-17.4,148.8-82.2,130.8-223.8,0,0-27.6-121.2-195.6-116.4-168,4.8-199.2,86.12-199.2,109.2,0,32.4,10.8,172.2,126,171.6,115.2-.6,166.2-75,153.6-130.8-12.6-55.8-75.6-75.6-136.8-63.6-61.2,12-90,50.4-57.6,93.6"/><path class="cls-1" d="M980.18,360.44s-6,33.6-18,56.4c-12,22.8-51.6,127.2-52.8,128.4s-2.4,4.8-6-13.2c-3.6-18-34.8-162-34.8-180s-7.2-15.6-12-15.6-139.2,15.01-171.6,7.2c-32.4-7.81,61.2-25.2,61.2-25.2l136.22-22.8s-59.33-27.6-106.22-91.2c0,0-20.4-26.4-31.2-34.8-10.8-8.4-22.8-31.2,12-8.4,0,0,85.2,22.8,102,22.8s40.8,6,40.8,6c0,0,2.4,7.2,4.8-10.8,2.4-18,25.2-120,37.2-154.8,12-34.8,7.91-30,20.76,14.4,12.85,44.4,30.85,63.6,35.65,94.8s7.2,67.2,7.2,67.2l134.4-25.2,87.6-13.2s33.6-4.8,2.4,9.6c-31.2,14.4-189.6,122.4-189.6,122.4,0,0,18,3.6,54,42s96,103.2,96,103.2c0,0,18,20.4-10.8,4.8s-193.2-88.8-199.2-84Z"/><path class="cls-1" d="M305.78,571.64s27-11.4,37.2-3c10.2,8.4,17.68,27.6,9,64.2-8.68,36.6-55.8,91.2-4.8,98.4,0,0,48.6-7.2,79.8-13.8,31.2-6.6,110.4-14.4,114.6,5.4,4.2,19.8-32.4,29.4-45.6,38.4-13.2,9-78,26.4-50.4,70.2,0,0,42.6,33.6,48,59.4,5.4,25.8,6.6,70.8-27.6,93.6-34.2,22.8-54.6,24.6-98.4-27.6,0,0-39-57-43.8-60.6s-32.4-40.2-48,9.6c-15.6,49.8-30,107.4-52.8,130.2-22.8,22.8-54.6,46.2-76.8,33.6-22.2-12.6-39.6-69.6-10.2-121.2,29.4-51.6,30-54,30-54,0,0,5.4-5.4-4.2-9.6-9.6-4.2-114.6-43.8-139.8-76.2-25.2-32.4-31.8-72,7.2-64.2,39,7.8,57.6,18,73.8,19.8,16.2,1.8,35.4,1.8,46.8,0,11.4-1.8,3.6-6.6-.6-15.6-4.2-9-43.8-78.6-46.2-100.8-2.4-22.2-15-64.85,19.8-58.22,34.8,6.62,60.6,30.62,60.6,30.62,0,0,28.8,28.8,37.8,42.6,9,13.8,13.8,27.6,16.8,7.8s15.6-76.8,67.8-99Z"/><path class="cls-2" d="M733.58,598.64s.5.02,1.44.04c14.77.45,138.49,4.3,159.36,6.56,22.2,2.4,106.2,4.2,115.8,3,9.6-1.2,19.8-.6,19.8-.6,0,0,3.6,1.8,3,6-.6,4.2-9.6,138-9.6,138,0,0-7.2,112.8-6,120,1.2,7.2,6,28.2,6,28.2l-103.2-4.2s-87,1.2-103.2,1.2h-78s-3,1.8,0-8.4c3-10.2,0-81.6,0-81.6,0,0-1.8-94.8-3-110.4-1.2-15.6-1.8-76.2,0-97.2"/><path class="cls-2" d="M729.38,677.84s103.2,6.6,126,5.4c22.8-1.2,50.4-2.4,84-2.4s96,6,96,6"/><path class="cls-2" d="M738.98,808.64s77.4-1.2,91.8.6c14.4,1.8,133.2-.6,133.2-.6,0,0,55.2,2.4,64.2,4.2"/><path class="cls-2" d="M929.45,607.64s-3.27,165.6-5.67,195.6c-2.4,30-7.26,92.8-7.26,92.8"/><path class="cls-2" d="M837.98,601.64v84.6c0,25.8-10.2,91.8-10.2,124.2s3.6,87.6,3.6,87.6"/></svg>