<?xml version="1.0" encoding="UTF-8"?><svg id="Layer_1" xmlns="http://www.w3.org/2000/svg" viewBox="0 0 458.77 458.02"><defs><style>.cls-1{fill:#fff;}</style></defs><path class="cls-1" d="M458.77,0v458.02H0V0h458.77ZM458.02.75H.75v456.53h457.27V.75Z"/><path d="M458.02.75v456.53H.75V.75h457.27ZM95.48,12.68H14.17v81.31h81.31V12.68ZM183.51,12.68h-83.55v81.31h67.14c-.67-10.67,7.53-13.03,16.41-10.44v-12.31c0-.62-6.28-4.55-6.02-10.43.23-5.14,6.02-7.69,6.02-8.22V12.68ZM272.28,12.68h-84.29v38.79c9.46-.16,13.03,9.36,16.77,16.37,3.83-1.27,2.18-5.45,2.71-8.45,1.11-6.31,2.36-12.71,7.75-16.87,6.05-4.67,14.16-4.11,19.41,1.48,12.16,12.95-2.74,36.86-8.59,49.99h12.68c.76-9.11,3.54-30.33,14.72-32.65,17.86-3.7,10.49,22.94,9.16,32.64,5.33.94,4.29-1.15,6.38-3.68.62-.75,3.31-3.16,3.31-3.4V12.68ZM361.04,12.68h-84.29v70.12c7.42-2.55,15.47-10.9,23.65-6.87,5.77,2.84,6.73,13.09,3.2,18.06h19.02c.64,0,3.51-7.56,9.71-7.49,1.37.02,6.92,2.84,8,3.74,1.35,1.13,1.84,3.75,2.06,3.75h18.65V12.68ZM446.08,12.68h-80.56v81.31h80.56V12.68ZM193.46,84.03l-5.47-7.94c.31,2.54-.55,6.07.14,8.42.5,1.69,6.02,6.01,5.94,9.35l3.61.12c-1.38-2.17-.28-4.79-.89-6.93-.5-1.74-2.5-2.04-3.32-3.02ZM95.48,99.21H14.17v82.06h73.85c-1.83-8.1-5.2-23.02,7.46-22.38v-59.68ZM166.35,99.21h-66.39v59.68c5.19,1.08,9.31,4.75,12.7,8.56,2.14,2.4,8.23,13.03,8.92,13.45.98.6,3.64.66,4.54.04,3.69-2.57-6.61-26.44-7.32-31.57-1.03-7.5-1.64-12.39,6.92-12.87,21.66-1.24,28.46,28.85,32.42,44.77h24.62c-6.4-4.96-7.47-12.39-10.89-18.58-2.1-3.8-15.06-21.97-17.89-24.63-1.34-1.26-3.1-1.56-4.46-3-1.08-1.15-1.78-3.67-2.56-4.15-1.5-.92-5.44-.09-7.68-.53-7.73-1.54-18.89-17.62-13.24-24.83,5.33-6.8,21.81-4.1,27.98.39,3.4,2.47,5.93,8.23,11.12,6.79l1.19-13.5ZM198.32,99.32l-3.63-.11c.05,7.36-1.65,14.65-2.23,22.02-.47,5.99-1.74,16.59.72,21.64,4.76,9.78,13.77,19.77,18.76,29.72l2.5,1.21c1.46-.44.6-5.7,1.84-7.68.95-1.53,4.63-1.75,5.16-3.23.75-4.89-1.47-9.45-3.05-13.9-5.97-16.75-14.21-32.86-20.07-49.67ZM237.96,99.21h-13.43c.69,3.1,7.05,20.87,9.32,20.87.69-.61,1.36-1.11,1.68-2.03,1.77-5.11.87-13.38,2.42-18.84ZM319.27,99.21h-19.39c-4.68,9.82-14.21,14.5-23.01,19.89l.22,11.47c5.41.54,11.05,9.93,15.89,7.63l26.29-38.99ZM361.04,125.32v-24.99l-1.12-1.12h-16.04c-.11,9.87-1.92,19.62-4.48,29.09h16.04c.34,0,2.49-4.41,5.59-2.98ZM446.08,99.21h-80.56v27.97c0,.4,3.8,4.46,4.62,6.57s2.06,7.83,1.99,9.89c-.16,4.45-6.61,5.83-6.61,6.3v31.33c3.61.63,3.07-3.41,4.34-5.73,6.78-12.4,21.7-8.48,21.37,5l.77.73h54.08v-82.06ZM249.9,181.27h10.82c.82,0,10.17-11.32,10.72-12.4,1.09-2.11,1.38-16.07.69-18.4-.44-1.49-3.81-3.67-4.94-5.5-3.74-6.03-.63-12.1,5.13-14.92l-.03-11.44-10.02-1.42c-2.62,2.18-.87,5.73-1.16,8.47-1.34,12.61-6.02,25.92-8.6,38.37-.16,3.24,7.37,6.22,2.3,12.06-1.75,2.01-5.15,1.71-4.9,5.17ZM276.76,161.87c3.65-3.91,8.75-7.93.38-9.71l-.38,9.71ZM361.04,152.18c-7.17,1.41-14.66,1.83-21.83,3.16-1.32.25-2.41,1.47-3.51,1.71-7.42,1.58-14.06,1.17-21.54.48l-15.78,23.75h32.08c.59-15.77,20.38-15.87,21.73-.1l8.85.1v-29.09ZM95.48,189.47c-1.51.39-3.74-2.98-4.1-2.98H14.17v82.06h81.31l-.03-7.43c-20.64-1.24-25.7-22.4-1.53-23.22,3.15-8.97-10.83-10.88-12.43-16.9-1.99-7.48,7.44-13.02,13.99-11.38v-20.14ZM183.51,186.49h-23.87l3.74,14.17c2.04-1.52,2.08-4.21,3.73-6.34,4.23-5.46,10.71-3.39,16.4-1.87v-5.96ZM211.85,259.59v-40.28c-5.34-.13-8.67-3.62-9.52-8.76-.37-2.25.29-7.93-.33-9-.13-.22-3.3-1.74-4.31-2.77-1.46-1.48-3.58-4.57-4.79-6.39-1.61-2.43-1.98-6.64-4.91-5.91l-.06,8.61c2.1,2.53,5.04,4.57,6.66,7.55,3.11,5.74,2.78,11.28,1.24,17.42-2.05,8.16-6.53,8.88-3.4,18.31,2.72,8.21,12.31,16.62,19.43,21.22ZM256.61,186.5l-8.85.1-3.83,15.56,12.67-15.66ZM276.75,217.07v20.89l51.5-22.72,4.5-2.96c1.51-8.19-1.2-17.39-1.55-25.78l-36.76-.02-2.76,4.49c8.71-3.41,29.53-1.51,28.37,11.56-.36,4.08-6.78,7.99-10.25,9.92-10.05,5.6-21.88,7.19-33.05,4.62ZM361.05,186.49l-8.87.09c-2.2,4.95.72,7.21,3.27,11.08l5.28-2.16.32-9.01ZM446.08,186.49h-56.32c-1.71,2.45-6.44,7.25-6.4,10.09.04,2.62,5.7,6.22,6.6,10.59,3.15,15.17-13.73,19.81-24.48,23.82.74,5.3-.91,12.79.05,17.77.55,2.88,7.18,6.54,3.77,11.83-1.2,1.86-5.66,1.22-3.79,7.95h80.56v-82.06ZM99.96,192.46v18.65c4.89,1.4,9.07,4.44,13.03,7.48,2.83,2.17,7.12,5.83,8.61,8.93.63.44,9.14-10.33,11.92-9.71-9.27-10.53-20.75-19.56-33.57-25.35ZM272.28,239.83v-19.77l-17.93,22.01c.98,7.09,17.25.11,17.93-2.24ZM361.04,232.74c-2.55.62-14.4,3.33-14.73,5.58l1.05,1.94,13.68,4.41v-11.94ZM99.96,268.55h48.11c.45,0,5.47-4.71,6.99-5.69,1.65-1.06,10.29-5.4,10.49-5.97,1.33-3.97-4.65-8.61-8.56-8.4-1.48.08-3.07,2.08-4.64,2.71-5.09,2.05-9.99,2.01-15.46,1.68-1.85-.11-4.58-1.5-5.86-1.28-1.09.18-6.73,4.51-8.66,5.43-6.68,3.19-15.03,4.94-22.41,4.81v6.72ZM306.22,268.55h54.83v-5.23c-7.83.42-15.66,1.08-23.53.78-4.06-.15-14.76-.65-17.77-2.37-3.42-1.96-1.43-4.49-7.56-4.44-3.63.03-15.26,3.03-11.62,7.95.19.26,5.33,3.22,5.65,3.3ZM95.48,273.77H14.17v83.55h81.31v-83.55ZM143.97,273.77h-44.01v83.55h83.55v-72.36c-12.05,10.42-45.44,12.6-39.54-11.19ZM361.04,273.77h-51.47c.83,2.3.31,5.66.9,7.68.41,1.4,2.37,2.06,2.47,4.62.29,7.55-6.84,4.96-11.16,5.65-2.42.39-4.3,2.79-7.09,3.36-7.73,1.59-14.06-5.83-15.64-12.66l-2.3-.44v75.34h84.29v-83.55ZM446.08,273.77h-80.56v83.55h80.56v-83.55ZM187.98,277.87v79.44h22.75l1.16-2.57.58-53.62c-3.89-2.87-6.09-4.33-8.46-8.7-.67-1.24-.74-3.61-1.3-4.29-.63-.77-4.98-3.08-6.91-5.4-2.35-2.82-2.92-7.16-7.03-6.69.06.71-.73,1.44-.8,1.83ZM272.28,279.73l-6.35-3.49c-6.84,4.4-14.56,7.27-22.75,7.97v71.99l1.12,1.12h27.97v-77.58ZM95.48,361.79H14.17v82.8h81.31v-82.8ZM183.51,361.79h-83.55v82.8h83.55v-82.8ZM211.85,361.79h-23.87v82.8h22.38l1.49-82.8ZM272.28,361.79h-29.09v82.8h29.09v-82.8ZM361.04,361.79h-84.29v82.8h84.29v-82.8ZM446.08,361.79h-80.56v82.8h80.56v-82.8Z"/></svg>