<?xml version="1.0" encoding="UTF-8"?>
<svg id="Layer_1" xmlns="http://www.w3.org/2000/svg" version="1.1" viewBox="0 0 591.8 306.1">
  <!-- Generator: Adobe Illustrator 29.4.0, SVG Export Plug-In . SVG Version: 2.1.0 Build 152)  -->
  <defs>
    <style>
      .st0 {
        fill: none;
        stroke: #000;
      }
    </style>
  </defs>
  <path class="st0" d="M184.9,9.6s15.6-6.6,21.4-1.7c5.9,4.8,10.2,15.9,5.2,37-5,21.1-32.2,52.6-2.8,56.7,0,0,28-4.2,46-8,18-3.8,63.7-8.3,66.1,3.1,2.4,11.4-18.7,17-26.3,22.1s-45,15.2-29.1,40.5c0,0,24.6,19.4,27.7,34.3,3.1,14.9,3.8,40.8-15.9,54-19.7,13.1-31.5,14.2-56.7-15.9,0,0-22.5-32.9-25.3-34.9-2.8-2.1-18.7-23.2-27.7,5.5-9,28.7-17.3,61.9-30.4,75.1-13.1,13.1-31.5,26.6-44.3,19.4-12.8-7.3-22.8-40.1-5.9-69.9,17-29.8,17.3-31.1,17.3-31.1,0,0,3.1-3.1-2.4-5.5-5.5-2.4-66.1-25.3-80.6-43.9-14.5-18.7-18.3-41.5,4.2-37,22.5,4.5,33.2,10.4,42.6,11.4,9.3,1,20.4,1,27,0,6.6-1,2.1-3.8-.3-9-2.4-5.2-25.3-45.3-26.6-58.1-1.4-12.8-8.6-37.4,11.4-33.6,20.1,3.8,34.9,17.7,34.9,17.7,0,0,16.6,16.6,21.8,24.6,5.2,8,8,15.9,9.7,4.5,1.7-11.4,9-44.3,39.1-57.1Z"/>
  <path class="st0" d="M396.7,55.1s.3,0,.8,0c8.5.3,79.9,2.5,91.9,3.8,12.8,1.4,61.3,2.4,66.8,1.7,5.5-.7,11.4-.3,11.4-.3,0,0,2.1,1,1.7,3.5-.3,2.4-5.5,79.7-5.5,79.7,0,0-4.2,65.1-3.5,69.3.7,4.2,3.5,16.3,3.5,16.3l-59.5-2.4s-50.2.7-59.5.7h-45s-1.7,1,0-4.9c1.7-5.9,0-47.1,0-47.1,0,0-1-54.7-1.7-63.7-.7-9-1-44,0-56.1"/>
  <path class="st0" d="M394.4,100.6s59.4,4.2,72.5,3.4c13.1-.8,29-1.5,48.4-1.5s55.3,3.8,55.3,3.8"/>
  <path class="st0" d="M399.9,176s44.6-.8,52.8.4c8.3,1.2,76.7-.4,76.7-.4,0,0,31.8,1.7,37,2.9"/>
  <path class="st0" d="M509.8,60.5s-1.3,35.2-1.3,48.3-3.7,71.1-5.2,89.1c-1.5,18-1.5,29.7-1.5,29.7"/>
  <path class="st0" d="M457.2,57.1v31.8c0,11.2-4.3,35.9-4.3,46.3s-.6,39.4-.3,57.3c.3,18-.4,35.2-.4,35.2"/>
</svg>