<?xml version="1.0" encoding="UTF-8"?>
<svg id="Layer_1" xmlns="http://www.w3.org/2000/svg" version="1.1" viewBox="0 0 411.8 241.9">
  <!-- Generator: Adobe Illustrator 29.4.0, SVG Export Plug-In . SVG Version: 2.1.0 Build 152)  -->
  <defs>
    <style>
      .st0 {
        fill: none;
        stroke: #000;
        stroke-miterlimit: 10;
        stroke-width: .5px;
      }
    </style>
  </defs>
  <path class="st0" d="M409.6,107.6l2.2-3.1h-2.9c-.8-.7-.5-4.6-.6-5.9-.6-3.8-3-10.5-4.5-14.6-2.9-8-6.8-17.1-11.1-24.3-1.5-2.5-6.6-8.5-7.3-10.5-.9-2.8,1-1.5,1.1-3.5-2.3.8-4.3,2-4-1.9l3.6-2.8c-.7-.9-.5-.6-1.2-.3-1.2.5-3.6,3-4.7,2.4-1.7-.9-3.6-6.1-6.4-6.6-1-1.7-7.7-6.2-7.9-7.5-.1-1.1,2.5-3,3.5-3.7l8-6.8c-3.2,2.3-12,8.6-13,8.8-2.3.4-6.5-5-8.5-6.2C321.8.3,283.3-4.7,245.9,8.4c-27.2-9.6-56.1-9.8-84.4.3C112.1-9.7,54.2,6.6,21.7,51.7-3.6,86.8-7,134.7,12.6,173.9c2.7,5.4,7.1,10.6,9.5,15.6,1.1,2.3,0,3.9,3.3,4.4.8,2.4,9.8,10.2,9.8,11.8,0,.7-.5,1.2-1,1.5l2.6.3c1.5,0,1.4,2.3,2,2.7.5.4,1.7.2,2.6.7,5.9,3.3,11.8,9.3,18.7,13.1,4.1,2.2,8.2,4.2,12.2,6.7l3,1.8h2.7c0,0,.5,1.5.5,1.5,3.9-.5,7.7,1.7,11.3,2.5,21.1,5,41,5.1,62.1.3,2.5-.6,7-2.5,10-3.1v.2c4-.5,7.7,1.7,11.4,2.5,2.7.6,5.3,1.2,8,1.7,1.9.5,3.6,1,5.1,1.2,12.4,1.9,25,1.7,37.2-.4,3.9-.6,7.9-1.3,11.8-2.2,3-.7,8.9-3.3,11.6-3.2,4.7,0,16.7,4.9,22.9,5.8,62.6,9.6,134.1-33.5,140.1-107,.5-6.1.5-11.8,0-17.5-.2-2.4-.6-4.9-.3-7.2h0ZM206.2,37.1c.6-.5,1.2-.9,1.6-1.1,2.1-1,9-1.1,11.6-1,1.1,0,5,.2,5.3,1.1.4,1.5-4.2,8-5.2,9.7-.7,1.2-1.2,2.8-1.8,4.1-3.5-4.5-7.4-8.8-11.5-12.8h0ZM190.4,50.4c-.5-1.2-1-2.5-1.8-3.8-2.1-3.4-5.8-6.7-5.9-11.3,5.7-.1,11.4-.7,17.1.5.6.5,1.2,1,1.8,1.5-4.1,4.1-7.8,8.5-11.3,13.2h0ZM161.3,17.5v15.5l-.7.8h-13.7l-.6-1.2c1-2.8,3.3-4.4,5-6.6.9-1.2,1.5-2.9,2.6-4.2.6-.7,5.7-5.2,6.1-5.3.5-.1,1.4.9,1.4,1h0ZM136.5,26.3c6.1-3.9,12.5-7,19.1-9.6l-.2,1.8-12.6,15.2h-14.4c-.2-1.1.3-1.5.9-2.3.3-.4.9-.8,1.5-1.3.7-.5,1.5-1,2.2-1.6,1.3-.9,2.6-1.7,3.5-2.2h0ZM162.7,17l1.1-.7c2.7,2.4,5.2,5,7.6,7.7,1.5,1.7,5.4,6.1,6.1,7.8.3.7.3,1.3.2,2h-13.9c-.1,0-1.1-1.6-1.1-1.8v-15h0ZM168.2,18c-.1-.8,0-.8.7-.8,1.4,0,6.3,2.2,7.9,2.9,6.5,3,12.9,7.7,18.9,11.8l.5,1.7h-15.3l-12.6-15.7ZM184,19.6c-2.9-1.8-8.2-4.1-10.5-6-.5-.4-.9-.5-.8-1.4,12.3-1.6,33.4-2.3,47.8-1.9,5,.5,9.8,1.1,14.3,1.9,1,1.5-4.9,3.5-5.4,3.8-9,5.2-17.6,11.5-25.4,18.9-6.2-5.8-13-10.9-20-15.3h0ZM211.9,33.7c-.2-1.1.3-1.5.9-2.3,1.2-1.4,5.4-4,7.2-5.1,6.1-3.9,12.5-7,19.1-9.6l-.2,1.8-12.6,15.2h-14.4ZM234.8,26c.9-1.2,1.5-2.9,2.6-4.2.6-.7,5.7-5.2,6.1-5.3.5-.1,1.4.9,1.4,1v15.5l-.7.8h-13.7l-.6-1.2c1-2.8,3.3-4.4,5-6.6h0ZM246.2,17l1.1-.7c2.7,2.4,5.2,5,7.6,7.7,1.5,1.7,5.4,6.1,6.1,7.8.3.7.3,1.3.2,2h-13.9c-.1,0-1.1-1.6-1.1-1.8v-15h0ZM251.7,18c0-.2,0-.4,0-.5,9.6,4.3,18.6,10.1,26.5,16.3h-13.9l-12.6-15.7h0ZM129.8,209.4c.5-.7,13.6-.8,15-.1l11.7,14.4c-9.5-3.3-18.5-7.7-26.7-13.6,0-.2,0-.4,0-.7h0ZM191.6,193c3.4,4.5,7.1,8.6,11.1,12.5-.7.6-1.3,1.2-1.9,1.9h-16.7c0-.7,0-1.3.2-2,.2-.6,5-8.9,7.2-12.4h0ZM195.4,208.9c.6.1,1.1,0,1.6.8-7.6,7.6-17.2,11.9-26.7,15.7-1.6-1.5,0-1.4.5-2.2l11.6-14c2.3-1.3,10.3-.9,13-.3h0ZM178.9,210.4c-.4,1.5-4.5,5.8-5.6,7.1-2.5,3-5.3,6.8-8.8,8.3-.6-.6-.7-14.6-.2-16,.1-.4.6-.7.9-1.1,3,.4,5.9-.5,8.7-.5,1.4,0,5.5.2,5.1,2.1ZM184.9,222.9c7-4.4,13.8-9.5,20.1-15.3,9.3,8.5,19.8,15.5,30.7,20.8.1,1.2,0,.8-.6,1-3.4,1.4-12.5,1.8-16.5,1.9-14.5.6-29.4-.1-43.8-2.9,1.7-1.5,7.9-4.2,10.1-5.6h0ZM218.6,192.8c1.4,2.3,2.6,5,3.2,6.1.4.6,1.1,1.1,1.5,1.9.4.8,2.7,4.7,2.8,5,.2.7-.2,1.7-.6,1.7h-15.5c-.8-.7-1.6-1.4-2.5-2.1,4-3.9,7.8-8.1,11.2-12.5h0ZM262.5,210.4c-.4,1.5-4.5,5.8-5.6,7.1-2.5,3-5.3,6.8-8.8,8.3-.6-.6-.7-14.6-.2-16,.1-.4.6-.7.9-1.1,3,.4,5.9-.5,8.7-.5,1.4,0,5.5.2,5,2.1h0ZM265.9,209.2c2.3-1.3,10.3-.9,13-.3.6.1,1.1,0,1.6.8-7.6,7.6-17.2,11.9-26.7,15.7-1.6-1.5,0-1.4.5-2.2l11.6-14h0ZM246.7,223.6c-.1.9-.4,2.1-1.4,2-.9-.3-6.1-5.4-7.1-6.5-1.1-1.1-7.2-8.6-7-9.6.1-.6,1.1-.7,1.6-.8,4-.6,8.5.1,12.6.2,1.6,1.2,1.6,12.3,1.4,14.5h0ZM240.7,224.6c-.8,1.2-.7.4-1.1.3-7.2-2.1-19.6-9.1-25.5-14.1-.5-.4-.9-.5-.8-1.4.5-.7,13.6-.8,15-.1l12.4,15.4ZM163.1,223.6c0,.7-.3,1.6-.8,1.9-.5-.1-.9-.3-1.4-.4-1.8-1.4-5.5-5-6.3-5.9-1.1-1.1-7.2-8.6-7-9.6.1-.6,1.1-.7,1.6-.8,4-.6,8.5.1,12.6.2,1.6,1.2,1.6,12.3,1.4,14.5h0ZM268.3,231.4c-1.3,0-9.9-.9-10.3-1.2-.7-.5-.5-.9,0-1.5,1.5-1.5,8-4.3,10.3-5.8,14.6-9.1,28.4-21.6,38.4-36.5.8-1.2,5.1-7.6,4.4-8.8h-1.4c-1.8,1.1-5.3,9.9-8.1,10.7-1.2.3-2.5-.3-3.3.9,2.5,1.7.6,3.6-.9,5.5-2.1,2.5-5.8,6.3-8.2,8.5-1.6,1.4-3.4,2.5-4.8,4.2h-16.7c0-.7,0-1.3.2-2,.3-.8,7.7-13.4,8.2-14,1-1.1,2.1-1.1,2.9-2.3-2.5-3.4,2.8-7.5,2.1-11.2-2.9,2.2-2.9,7.4-5.3,10.4l-5.4.6c.4,1.1,2,0,3,.9.4.3.6.8.7,1.3.2,2.4-7.6,14.2-9.8,16.2h-16l-.7-.8v-15.5c0-.2.5-1.1.8-1.3.8-.5,2.3,0,2.4-1-5.8.4-1.6-6.6-3.9-10l-1.1,4.3-.3,4.7c-.1.2-3.8,1-4.1,1h-7.5v.5h10.3c.1,0,1.4,1.5,1.5,1.8.7,1.6.8,11.7.5,13.9-.2,2-.8,2.1-2.5,2.2-2.9.3-10.9.4-13.8,0-2.2-.3-4-4.7-5.2-6.6-.6-1-2.2-2.8-2.7-3.7-.5-.8-2-3.4-2.5-5.4.6-.8,1.2-1.6,1.7-2.3l2.6-.4-2.1-.4c.5-.7,1-1.4,1.5-2.2.8-1.2,5.1-7.6,4.4-8.8h-1.4c-1.7,1-4.9,8.9-7.6,10.5h-.6c-2.2-1.5-3.8-9.5-5-10.1-.9-.4-.7.8-.7,1.2.2,1.9,4,8.1,3.2,9.2-4,1.5-8.2-.2-12.1,0-.5,0-2.1.2-2.1,1h13.7c2,1.7.2,3.5-1.2,5.2-2.1,2.5-5.8,6.3-8.2,8.5-.1.1-.3.2-.4.4-2.7-2.3-5.3-4.8-7.5-7.3-.7-.8-3.6-4.2-3.8-5.7.3-.2.7-.4,1-.6l4.6-.4c0-.3-.6-1-.7-1-.9,0-2.4.1-3.7.1-1.5-3.2,3.1-7.1,2.5-10.6-2.9,2.2-2.9,7.4-5.3,10.4h-.4c-2.1-.7-5.9-9-7.9-10.8h-1.6c-.1.5,0,1.3.4,2.1.9,2,3.5,5.9,5.8,9.1l-1.6.2c.3.8,1.2.4,2.1.6.6.8,1.1,1.5,1.5,2.1-.5,3.1-7.7,13.9-9.8,15.8h-16l-.7-.8v-15.5c0-.2.5-1.1.8-1.3.8-.5,2.3,0,2.4-1-5.8.4-1.6-6.6-3.9-10l-1.1,4.3-.2,4.7c-.1.2-3.8,1-4.1,1h-7.5v.5h10.3c.1,0,1.4,1.5,1.5,1.8.7,1.6.8,11.7.5,13.9-.2,2-.8,2.1-2.5,2.2-2.9.3-10.9.4-13.8,0-2.2-.3-4-4.7-5.2-6.6-.6-1-2.2-2.8-2.7-3.7-.7-1.2-3.7-6.5-2.2-7.6l4-.6-5.7-1c-2.2-1.4-3.8-9.4-5-10-.9-.4-.7.8-.7,1.2.2,1.9,4,8.1,3.2,9.2-4,1.5-8.2-.2-12.1,0-.5,0-2.1.2-2.1,1h13.9c2.1,0,5.4,7.6,6.4,9.4.4.6,1.1,1.1,1.5,1.9.4.8,2.7,4.7,2.8,5,.2.7-.2,1.7-.6,1.7h-15.5c-1.9-1.6-4-3.3-6-5.1-3.3-3.1-6.4-6.6-9.3-10.4-.5-.9-.8-1.7-.5-2l5.5-.5c0-.3-.6-1-.7-1-1.8,0-5.4.4-6.9,0l-2.6-2.7c-1.9-2.8-4.1-7-5.5-8.2h-1.6c0,.2,0,.5,0,.7l-.7-.7c.3.4.5.9.8,1.3,0,.2.2.5.3.8,1,2.2,4.1,6.8,6.5,10.2.9,2.1,0,3.6,3.1,4.1,0,0,0,.1.2.2.5,1.2,2.5,3.3,4.5,5.4,1.3,1.4,2.6,2.9,4,4.2.8.9,1.2,1.6,1.3,1.9,0,.7-.5,1.2-1,1.5l2.6.3c1.6,0,1.4,2.3,2,2.7.5.4,1.7.2,2.6.7.3.2.7.4,1,.6,3.9,3.2,7.9,6.2,12.1,8.9,1.8,1.3,3.6,2.5,5.5,3.6,2.9,1.6,5.8,3.1,8.7,4.7.1.9,0,.6-.7.8-3.4,1.4-12.5,1.8-16.5,1.9-51.5,2-114-29-128.2-87.1C-8.4,82,36.7,32.4,88.1,16.9c20.6-6.2,42.1-8.1,63.2-4.6.2.3,0,.7-.2,1-17.7,8.5-33.6,21.4-45.8,38.4-3.2,4.4-6,9-8.5,13.8,1-1.5,2.1-3,3.2-4.5-.6,1-1,1.8-1.2,2.3-.3.8-.6,1.3-.4,2.2h1c2.1-1.5,6-9.1,7-9.9,1.3-1.1,4.1-1.2,4.3-1.5.9-1-1.6-1.1-1.4-2.2,1.2-.9,1.5-2.4,2.3-3.5,1.8-2.4,10.5-11.4,12.8-12.5,2.1-1,9-1.1,11.6-1,1.1,0,5,.2,5.3,1.1.4,1.5-4.2,8-5.2,9.7-1.7,3.1-2.3,8.4-6.7,7.4-.3,1.5,1.4,1,1.4,2.2.2,3-2.6,5.5-2.8,8.5l1.1.3c1.5-3.8,2.6-8.1,6.2-10.3.1-.6-.9-1.2-.9-1.9,0-.3,2.6-5.3,3.1-6.2,1.9-3.5,4.2-6.6,6.1-10,5.8-.7,12-1.1,17.7-.1v16.2c0,1.3-3.1,1.2-3.2,1.5-.4,1.2,1.5.6,2.3,1,.2.1.9.9.9,1v9l1.1.8c1.3-.3.5-7.2.7-8.8.1-1.1.9-1.9.9-2.5,0-.8-1.2-1.3-1.4-3-.3-2.7.1-10.6.5-13.5.2-1.4.6-1.9,1.8-2.5l13.5.2c.8-.1,1.1.4,1.6.8,1.2.9,5.4,7.4,6.3,9.1.4.8,3.2,6,3.2,6.4h0c-.4.6-.8,1.2-1.2,1.8,0,0,0,0,0,0l-6.5.4c0,.3.6,1,.7,1h4.9c-1.8,2.7-4.6,7-5.2,8.7-.3.8-.6,1.3-.4,2.2h1c2.1-1.5,6-9.1,7-9.9.3-.3.8-.5,1.2-.7,1.5,1.5,3.7,7.3,4.4,8.7.4.7,0,1.3,1.1,1-.4-3.5-3.2-6.3-2.7-10,1.1,0,2.4,0,2.3-1.5-.8.2-1.5.2-2.1.1-.5-.4-1.4-.7-1.3-1.4,1.2-.9,1.5-2.4,2.3-3.5,1.2-1.6,5.5-6.2,8.9-9.3,4.3,3.9,8.2,8.2,11.8,12.9.1.7-.6,1.1-1.6,1.3-.4,0-.8,0-1.3,0,0,.1,0,.2,0,.3-1.1.2-2.1.2-2.6.2.9,1.1,2.2,1.1,3.7,1.1.1.2.3.4.3.7.2,3-2.6,5.5-2.8,8.5l1.1.3c1.3-3.3,2.3-6.9,4.9-9.3.1,0,.3,0,.4.2,2,.9,5.5,8.4,7.4,10.4l1.2-.3c.4-.5.3-1.1.1-1.6-.4-1.7-5.9-9.6-7.2-11.5-.3-.4-.6-.8-.9-1.2.8-1.6,2.2-4.4,2.5-5,1.9-3.5,4.2-6.6,6.1-10,5.8-.7,12-1.1,17.7-.1v16.2c0,1.3-3.1,1.2-3.2,1.5-.4,1.2,1.5.6,2.3,1,.2.1.9.9.9,1v9l1.1.8c1.3-.3.5-7.2.7-8.8.1-1.1.9-1.9.9-2.5,0-.8-1.2-1.3-1.4-3-.3-2.7.1-10.6.5-13.5.2-1.4.6-1.9,1.8-2.5l13.5.2c.8-.1,1.1.4,1.6.8,1.2.9,5.4,7.4,6.3,9.1.5.8,3.2,6,3.2,6.4.1.6,0,1.2,0,1.7l-7.8.5c0,.3.6,1,.7,1h7.8c1.4,0,4.2,7.4,5,9,.4.7,0,1.3,1.1,1-.4-3.5-3.2-6.3-2.7-10,1,0,2.4,0,2.3-1.5-5.6,1-5.2-3.1-7.4-6.7-2.1-3.4-5.8-6.7-5.9-11.3,4.6-.1,9.2-.5,13.7,0,7.5,6,14,12.2,18.9,17.4-1,.9-4.4,1.1-5.2,1,1.6,2.1,5,.3,7.5,1.3,1,1.1,2,2.2,2.9,3.1,1.7,2.6,3.5,6.1,4.8,7.3l1.2-.3c.4-.5.3-1.1.1-1.6,0-.2-.2-.7-.5-1.2,0-.9.1-1.7-.4-2.7-1.5-2.5-6.6-8.5-7.3-10.5-.9-2.8,1-1.5,1.1-3.5-2.3.8-4.3,2-4-1.9l3.6-2.8c-.7-.9-.5-.6-1.2-.3-1.2.5-3.6,3-4.7,2.4-1.7-.9-3.6-6.1-6.4-6.6-1-1.7-7.7-6.2-7.9-7.5-.1-1.1,2.5-3,3.5-3.7l8-6.8c-3.2,2.3-12,8.6-13,8.8-2.3.4-6.5-5-8.5-6.2-5.3-3.2-10.7-6.1-16.1-8.5,0,0,0-.2,0-.3,13.8-1.8,28.9-2.4,42.7-.4,46.6,6.5,103,45.7,106.8,101.5,5.4,80.3-73.7,121.6-137.4,118.1h0s0,0,0,0Z"/>
  <path class="st0" d="M47.9,69.2l-9.2,31.6,30.4.6-23,72.3,38.3-.2,23.1-72.6,23.9.5,11.1-32.2H47.9Z"/>
  <path class="st0" d="M144.6,68.9l.8,104.3,35.1.2,25.8-46.7,1,46.7h31.6l57.6-104.5-39.2.2-21.5,42.6.4-42.4h-33.1l-24.1,44.7.2-44.8-34.7-.2h0Z"/>
  <path class="st0" d="M363.2,68.7l-56.4.8-55.4,103.9,37.5.6,9.3-17.6,30.4-.2v17.9h34.5v-105.3h0ZM328.1,99.6l-.6,32.1h-16.8c0,0,0,.2,0,.2v-.2h0c.9-2.3,17.4-32.1,17.4-32.1h0,0Z"/>
</svg>