<?xml version="1.0" encoding="UTF-8"?><svg id="Layer_1" xmlns="http://www.w3.org/2000/svg" viewBox="0 0 380.96 380.93"><defs><style>.cls-1{fill:none;stroke:#000;stroke-miterlimit:10;stroke-width:1.5px;}</style></defs><line class="cls-1" x1="229.53" y1="188.8" x2="380.92" y2="179.54"/><line class="cls-1" x1="234.04" y1="176.38" x2="372.34" y2="131.44"/><line class="cls-1" x1="225.11" y1="169.36" x2="352.75" y2="89.61"/><line class="cls-1" x1="217.47" y1="162.14" x2="321.69" y2="52.32"/><line class="cls-1" x1="209.78" y1="154.39" x2="282.61" y2="22.99"/><line class="cls-1" x1="201.81" y1="147.36" x2="239.75" y2="5.76"/><line class="cls-1" x1="152.55" y1="187.65" x2=".05" y2="178.33"/><line class="cls-1" x1="152.8" y1="197.94" x2="2.69" y2="227.11"/><line class="cls-1" x1="152.55" y1="207.83" x2="17.05" y2="271.02"/><line class="cls-1" x1="153.58" y1="220.93" x2="43.33" y2="311.82"/><line class="cls-1" x1="164.28" y1="227.68" x2="78.54" y2="345.69"/><line class="cls-1" x1="174.89" y1="229.61" x2="118.98" y2="368.01"/><line class="cls-1" x1="185.36" y1="229.61" x2="165.55" y2="380.07"/><line class="cls-1" x1="195.83" y1="229.61" x2="214.4" y2="380.83"/><line class="cls-1" x1="206.47" y1="229.61" x2="260.2" y2="369.58"/><line class="cls-1" x1="218.57" y1="229.61" x2="301.73" y2="346.21"/><line class="cls-1" x1="228.74" y1="221.79" x2="337.98" y2="313.45"/><line class="cls-1" x1="228.35" y1="208.5" x2="364.67" y2="272.06"/><line class="cls-1" x1="229.19" y1="198.01" x2="378.95" y2="227.11"/><line class="cls-1" x1="190.8" y1="139.08" x2="189.59" y2="0"/><line class="cls-1" x1="178.97" y1="147.36" x2="141.11" y2="6.05"/><line class="cls-1" x1="171.76" y1="155.94" x2="98.31" y2="23.43"/><line class="cls-1" x1="163.5" y1="162.14" x2="59.44" y2="52.49"/><line class="cls-1" x1="156.15" y1="169.99" x2="28.11" y2="89.98"/><line class="cls-1" x1="147.22" y1="176.9" x2="8.66" y2="131.88"/></svg>