<?xml version="1.0" encoding="utf-8"?>
<!-- Generator: Adobe Illustrator 28.0.0, SVG Export Plug-In . SVG Version: 6.00 Build 0)  -->
<svg version="1.1" id="Layer_1" xmlns="http://www.w3.org/2000/svg" xmlns:xlink="http://www.w3.org/1999/xlink" x="0px" y="0px"
	 viewBox="0 0 357.41 206.83" style="enable-background:new 0 0 357.41 206.83;" xml:space="preserve">
<g>
	<path d="M155.18,146.34c-0.85-0.39-1.64-0.82-2.49-1.1c-0.5-0.16-1.08-0.14-1.62-0.09c-1.3,0.12-2.06-0.33-2.16-1.64
		c-0.08-1.08-0.6-1.84-1.27-2.56c-0.46-0.5-0.76-1.05-1.06-1.66c-0.55-1.12-1.27-2.16-1.96-3.2c-0.79-1.2-1.62-2.38-2.45-3.56
		c-0.2-0.28-0.48-0.51-0.73-0.76c-0.47-0.47-0.93-0.94-1.4-1.4c-0.28-0.27-0.54-0.57-0.84-0.81c-1.51-1.17-3.29-1.74-5.05-2.4
		c-2.52-0.95-5.03-1.94-7.51-3c-1.9-0.81-3.76-1.73-5.6-2.67c-1.08-0.55-2.08-1.25-3.12-1.87c-0.3-0.18-0.62-0.35-0.94-0.47
		c-1.07-0.39-1.42-0.29-2.17,0.55c-0.18,0.2-0.34,0.44-0.56,0.6c-1.92,1.39-3.11,3.26-3.72,5.53c-0.1,0.36-0.34,0.69-0.52,1.03
		c-0.06,0.1-0.19,0.17-0.22,0.27c-0.43,1.71-1.92,2.51-3.13,3.51c-1.11,0.91-2.4,1.61-3.63,2.37c-0.66,0.41-1.35,0.8-2.07,1.09
		c-0.86,0.35-1.8,0.53-2.66,0.9c-2.19,0.94-4.53,1.21-6.84,1.63c-1.11,0.2-2.21,0.52-3.3,0.81c-1.1,0.29-2.18,0.65-3.29,0.88
		c-0.72,0.15-1.47,0.17-2.21,0.17c-0.86,0-1.64,0.11-2.23,0.81c-0.12,0.14-0.31,0.29-0.48,0.31c-1.38,0.15-2.01,1.25-2.82,2.13
		c-1.06,1.16-2.09,2.33-3.14,3.49c-0.15,0.16-0.37,0.25-0.54,0.36c-0.57-0.24-0.66-0.67-0.5-1.09c0.94-2.48,1.77-4.99,3.13-7.33
		c0.88-1.51,2.29-2.04,3.58-2.84c1.43-0.89,2.89-1.72,4.35-2.56c0.43-0.25,0.92-0.41,1.38-0.61c1.94-0.83,3.89-1.65,5.83-2.49
		c1.84-0.8,3.17-2.18,4.51-3.64c1.14-1.24,2.16-2.56,3.2-3.88c0.29-0.36,0.64-0.68,0.97-1.01c1.12-1.12,2.24-2.24,3.45-3.44
		c-0.7-0.4-1.19-0.76-1.88-0.63c-0.57,0.11-1.25,0.32-1.56-0.38c-0.35-0.78-0.67-1.66,0.04-2.42c0.74-0.8,1.54-1.55,2.33-2.31
		c1.01-0.97,2.03-1.92,3.13-2.95c-0.66-0.45-1.21-0.32-1.71-0.18c-1.55,0.42-3.08,0.33-4.66,0.21c-1.63-0.13-3.29-0.02-4.92,0.08
		c-2.16,0.13-4.3,0.04-6.45-0.23c-2.11-0.26-4.21-0.33-6.31,0.13c-0.71,0.15-1.47,0.01-2.21,0.04c-0.65,0.03-1.31,0.06-1.96,0.17
		c-1.96,0.36-3.92,0.74-5.87,1.14c-1.88,0.38-3.75,0.77-5.62,1.19c-0.84,0.19-1.66,0.47-2.49,0.7c-3.2,0.9-6.39,1.85-9.61,2.67
		c-1.12,0.29-2.33,0.25-3.5,0.37c-0.62,0.06-1.24,0.16-1.87,0.22c-0.27,0.02-0.57,0.04-0.81-0.05c-0.22-0.08-0.39-0.31-0.58-0.48
		c0.18-0.19,0.32-0.48,0.53-0.54c0.91-0.23,1.85-0.56,2.76-0.52c2.52,0.1,4.74-0.88,7.03-1.69c0.26-0.09,0.52-0.18,0.78-0.25
		c3.14-0.85,6.28-1.71,9.43-2.52c0.94-0.24,1.92-0.32,2.89-0.47c0.77-0.11,1.56-0.16,2.32-0.32c2.65-0.55,5.28-1.16,8-1.19
		c1.41-0.02,2.81-0.16,4.22-0.2c1.02-0.03,2.02,0.2,3.01,0.3c1.89,0.19,3.8,0.65,5.73,0.29c0.23-0.04,0.48-0.13,0.7-0.08
		c2.35,0.5,4.69-0.13,7.03-0.08c1.59,0.03,3.2-0.22,4.68-0.96c0.58-0.29,1.24-0.42,2.15-0.72c-0.64-0.16-1.06-0.36-1.48-0.36
		c-1.54-0.02-2.96-0.53-4.21-1.32c-1.82-1.15-2.43-3.23-0.78-4.99c1.36-1.45,2.97-2.66,4.48-3.97c0.74-0.64,1.49-1.27,2.26-1.87
		c1.83-1.4,3.64-2.83,5.86-3.62c0.19-0.07,0.33-0.27,0.7-0.57c-0.54-0.03-0.83-0.1-1.11-0.05c-0.42,0.07-0.86,0.15-1.25,0.32
		c-1.92,0.89-4.01,1.01-6.04,1.43c-0.04,0.01-0.08,0.01-0.12,0.01c-1.22,0.13-1.74-0.06-1.77-0.62c-0.05-0.81,0.83-1.81,1.68-1.96
		c1.42-0.25,2.84-0.54,4.26-0.82c0.06-0.01,0.1-0.1,0.23-0.26c-0.44-0.03-0.81-0.05-1.18-0.09c-0.86-0.09-1.16-0.49-0.98-1.35
		c0.08-0.38,0.21-0.74,0.34-1.15c-0.64-0.51-1.31-1.01-1.09-1.93c0.1-0.4,0.25-0.86,0.53-1.12c0.7-0.61,1.44-1.13,2.41-1.37
		c1.28-0.32,2.51-0.88,3.75-1.35c0.17-0.06,0.29-0.23,0.53-0.42c-0.24-0.27-0.42-0.5-0.63-0.71c-0.66-0.68-0.73-1.43-0.02-2.03
		c1.52-1.31,3.17-2.45,5.17-2.9c1.1-0.24,2.09-0.53,2.72-1.61c0.25-0.42,0.84-0.83,1.33-0.89c1.66-0.22,3.33-0.6,5.01-0.13
		c0.53,0.15,0.98,0.37,1.15,0.89c0.08,0.25,0.01,0.64-0.15,0.83c-0.1,0.13-0.49,0.04-0.75,0.04c-0.07,0-0.14-0.07-0.19-0.12
		c-1.27-1.34-2.81-0.9-4.3-0.6c-0.22,0.04-0.44,0.3-0.57,0.52c-0.83,1.37-2.03,2.22-3.54,2.72c-1.16,0.39-2.45,0.65-3.12,2.01
		c0.27,0.18,0.54,0.37,0.9,0.62c-0.43,1.27-1.06,2.38-2.4,2.94c-0.58,0.24-1.14,0.51-1.73,0.74c-0.6,0.23-0.74,0.65-0.56,1.22
		c0.06,0.19,0.12,0.37,0.2,0.55c0.14,0.3,0.25,0.6-0.08,0.84c-0.37,0.26-0.8,0.26-1.07-0.08c-0.33-0.41-0.54-0.92-0.88-1.53
		c-0.39,0.26-0.84,0.55-1.39,0.91c0.82,0.81,1.13,1.62,0.9,2.63c-0.09,0.4,0.03,0.44,0.93,0.79c-0.1-0.39-0.19-0.73-0.33-1.25
		c0.6,0.03,1.08,0.05,1.7,0.09c-0.21,0.51-0.37,0.88-0.56,1.33c0.97,0.14,1.66-0.4,2.22-0.91c1.38-1.24,2.98-1.28,4.62-1.02
		c1.04,0.16,2,0.22,2.91-0.45c0.22-0.16,0.62-0.25,0.87-0.18c1.11,0.34,2.24,0.7,2.82,1.69c0.45-0.33,0.89-0.72,1.38-0.99
		c0.57-0.32,0.86-0.74,0.9-1.4c0.04-0.93,0.33-1.87-0.35-2.67c0.54-0.87,1.18,0.05,1.74-0.2c0.5-0.42-0.12-0.86,0.01-1.42
		c0.53-0.21,1.13-0.45,1.83-0.73c-0.24-0.3-0.32-0.49-0.47-0.59c-1.16-0.74-1.51-1.95-1.82-3.17c-0.04-0.17,0.08-0.49,0.22-0.57
		c0.16-0.09,0.51-0.07,0.64,0.05c0.21,0.2,0.4,0.5,0.46,0.79c0.18,0.88,0.71,1.44,1.44,1.9c1.31,0.81,1.31,1.62,0.12,2.65
		c-1.3,1.13-2.23,2.48-2.15,4.32c0.05,1.1-0.46,1.86-1.45,2.33c-0.23,0.11-0.51,0.3-0.58,0.51c-0.28,0.87-0.5,1.77-0.76,2.76
		c1.17,0.55,2.13,1.61,3.66,1.5c0.57-0.04,1.16,0.21,1.74,0.25c0.85,0.06,1.71,0.04,2.57,0.05c0.31,0,0.7-0.13,0.92,0.01
		c1.17,0.75,2.34,0.29,3.52,0.11c0.5-0.07,1-0.18,1.5-0.25c1.21-0.18,2.35-0.47,3.41-1.16c0.84-0.55,1.86-0.81,2.77-1.27
		c1.75-0.87,3.5-1.75,5.2-2.72c0.43-0.24,0.78-0.78,0.97-1.26c0.66-1.63,1.8-2.82,3.23-3.77c0.19-0.13,0.41-0.29,0.62-0.31
		c1.13-0.1,1.91-0.78,2.72-1.48c1.21-1.05,2.53-1.97,3.78-2.97c2.17-1.73,4.31-3.48,6.47-5.21c0.3-0.24,0.63-0.46,0.96-0.68
		c1.68-1.08,3.37-2.13,5.04-3.22c1.93-1.27,3.82-2.59,5.76-3.84c1.44-0.93,2.92-1.8,4.39-2.69c2.48-1.49,4.93-3.03,7.45-4.44
		c2.25-1.26,4.58-2.38,6.87-3.56c0.24-0.13,0.5-0.23,0.73-0.37c2.61-1.51,5.22-3.02,7.81-4.55c1.99-1.17,3.94-2.4,5.93-3.55
		c0.91-0.53,1.89-0.95,2.84-1.41c2.43-1.18,4.86-2.36,7.29-3.54c1.41-0.68,2.81-1.37,4.23-2.02c0.99-0.45,2.03-0.8,3.02-1.26
		c0.58-0.27,1.11-0.67,1.74-1.06c-0.64-0.76-1.32-1.2-2.04-1.58c-1.03-0.54-1.19-0.98-0.33-1.74c0.84-0.74,1.86-1.28,2.83-1.85
		c0.56-0.33,1.2-0.53,1.89-0.82c-0.37-0.41-0.81-0.34-1.2-0.44c-0.79-0.19-1.6-0.35-2.35-0.66c-1.71-0.68-3.32-1.52-4.85-2.58
		c-1.85-1.29-3.43-0.64-4.16,1.52c-0.06,0.18-0.07,0.39-0.15,0.57c-0.26,0.58-0.92,0.93-1.54,0.82c-0.69-0.12-1.38-0.23-2.06-0.4
		c-0.24-0.06-0.55-0.24-0.61-0.43c-0.05-0.17,0.16-0.5,0.34-0.65c0.95-0.75,1.93-1.47,2.9-2.2c0.88-0.66,0.85-0.89-0.02-1.56
		c-1.08-0.83-2.39-1-3.65-1.17c-1.22-0.16-2.48-0.04-3.83-0.04c-0.05,0.43-0.04,0.82-0.14,1.18c-0.16,0.55-0.34,1.11-0.62,1.6
		c-0.33,0.59-0.93,0.59-1.55,0.56c-0.54-0.03-1.09,0.12-1.63,0.14c-0.63,0.03-1.2-0.17-1.46-0.78c-0.24-0.57,0.05-1.09,0.41-1.51
		c0.45-0.54,0.98-1.01,1.47-1.52c0.1-0.11,0.18-0.24,0.36-0.49c-0.69,0.04-1.26,0.01-1.81,0.1c-2.5,0.41-5.07,0.54-7.36,1.8
		c-0.88,0.48-0.88,0.47-0.61,1.44c0.11,0.41,0.21,0.84,0.24,1.27c0.05,0.76-0.3,1.01-0.9,1.44c-1.11,0.8-2.34,0.42-3.51,0.55
		c-1.02,0.12-1.39-0.67-0.91-1.61c0.16-0.3,0.29-0.62,0.53-1.12c-0.56,0.07-0.95,0.05-1.28,0.19c-1.11,0.45-2.24,0.28-3.37,0.23
		c-0.25-0.01-0.49-0.24-0.73-0.37c0.02-0.08,0.03-0.16,0.05-0.24c1.03-0.25,2.06-0.47,3.08-0.76c1.04-0.29,2.07-0.65,3.25-1.03
		c-0.22-0.45-0.42-0.81-0.59-1.18c-0.16-0.35-0.36-0.69-0.44-1.06c-0.09-0.47,0.1-0.85,0.63-0.96c0.61-0.13,1.22-0.29,1.84-0.38
		c0.87-0.12,1.27,0.22,1.27,1.09c0,0.42-0.07,0.85-0.12,1.46c0.43-0.11,0.83-0.12,1.12-0.3c1.24-0.74,2.59-1.06,4.01-1.23
		c1.52-0.18,3.02-0.48,4.53-0.69c0.65-0.09,1.31-0.09,1.97-0.12c0.37-0.61,0.2-1.23,0.09-1.84c-0.08-0.43-0.19-0.88,0.23-1.19
		c0.42-0.31,0.83-0.31,1.3,0.01c0.26,0.18,0.65,0.21,0.99,0.26c1.27,0.21,1.74,0.45,2.47,1.33c-0.7,0.58-1.39,1.16-2.06,1.71
		c0.14,0.6,0.54,0.53,0.87,0.57c1.2,0.13,2.41,0.18,3.59,0.4c0.75,0.14,1.46,0.53,2.19,0.8c0.29,0.11,0.58,0.24,0.89,0.32
		c0.68,0.17,0.92,0.04,1.14-0.64c0.13-0.41,0.17-0.85,0.31-1.25c0.13-0.4,0.27-0.83,0.51-1.17c0.52-0.75,0.96-0.67,1.5,0.05
		c0.29,0.38,0.74,0.68,1.17,0.88c1.54,0.73,1.64,1.46,0.29,2.55c-0.36,0.29-0.75,0.56-1.23,0.92c0.6,0.44,1.16,0.83,1.71,1.24
		c1.43,1.05,2.9,1.99,4.7,2.29c1.23,0.21,2.45,0.5,3.65,0.83c0.38,0.1,0.7,0.44,1.07,0.68c0.53-0.14,1.12-0.24,1.66-0.44
		c0.35-0.13,0.75-0.33,0.97-0.61c0.77-1.03,1.86-1.66,2.82-2.46c1.64-1.38,3.29-2.77,4.81-4.29c0.91-0.91,1.96-1.53,3.03-2.18
		c0.37-0.22,0.68-0.18,1.08,0.06c1.07,0.63,2.16,1.25,3.31,1.72c1.47,0.6,2.99,1.13,4.53,1.54c2.03,0.54,4.11,0.94,6.17,1.38
		c0.55,0.12,0.82,0.43,0.83,0.97c0.02,1.06-0.33,2-1.01,2.8c-1.03,1.22-2.09,2.42-3.15,3.63c-0.2,0.23-0.39,0.57-0.65,0.65
		c-1.21,0.41-2,1.31-2.84,2.18c-0.16,0.17-0.35,0.31-0.55,0.43c-1.38,0.8-2.77,1.59-4.16,2.38c-0.03,0.02-0.07,0.05-0.11,0.05
		c-1.45,0.11-2.57,1.09-3.89,1.53c-1.34,0.44-2.67,0.92-3.95,1.49c-0.74,0.32-1.33,0.36-1.94-0.18c-0.2-0.17-0.47-0.35-0.71-0.37
		c-2.02-0.13-3.7-1.22-5.5-1.94c-1.4-0.56-2.74-0.51-4.13-0.28c-0.46,0.08-0.91,0.25-1.33,0.46c-1.66,0.8-3.29,1.65-4.95,2.43
		c-1.38,0.65-2.82,1.17-4.18,1.85c-2,0.99-4.02,1.91-5.83,3.27c-1.01,0.76-2.29,1.17-3.41,1.79c-1.23,0.68-2.46,1.37-3.63,2.15
		c-1.45,0.97-3.03,1.63-4.64,2.25c-0.25,0.1-0.53,0.18-0.75,0.33c-2.72,1.86-5.67,3.33-8.56,4.89c-1.65,0.89-3.21,1.94-4.84,2.89
		c-1.62,0.95-3.26,1.85-4.88,2.79c-0.4,0.23-0.77,0.54-1.14,0.82c-1.8,1.38-3.84,2.37-5.75,3.56c-1.59,1-3.08,2.15-4.63,3.21
		c-0.9,0.62-1.78,1.31-2.76,1.75c-1.71,0.78-3.05,2.05-4.52,3.14c-0.03,0.02-0.05,0.06-0.09,0.08c-1.44,0.81-2.58,1.97-3.78,3.09
		c-1.22,1.14-2.65,2.07-4.09,2.94c-1.43,0.86-2.42,1.92-2.67,3.62c-0.31,2.09-1.55,3.42-3.55,4.1c-0.98,0.33-1.57,1.12-2.03,2.02
		c-0.96,1.89-2.14,3.62-3.6,5.17c-0.4,0.43-0.7,0.95-1.1,1.37c-0.42,0.45-0.92,0.83-1.37,1.24c-0.43,0.39-0.86,0.78-1.29,1.18
		c-2.24,2.09-4.94,2.94-7.94,3.01c-0.31,0.01-0.63,0.02-0.94,0c-1.93-0.14-3.48,0.63-4.87,1.92c-0.68,0.63-1.47,1.26-2.33,1.54
		c-1.19,0.4-1.65,1.22-1.96,2.27c-0.43,1.42-0.86,2.84-1.29,4.26c-0.01,0.04-0.02,0.07-0.04,0.11c-0.27,0.68-0.82,1.18-1.14,0.99
		c-0.58-0.35-0.34-0.89-0.2-1.37c0.16-0.52,0.33-1.05,0.57-1.54c0.52-1.12,0.71-2.31,0.77-3.53c0.02-0.38,0.14-0.76,0.26-1.12
		c0.28-0.81,0.62-1.6,0.9-2.41c0.19-0.54,0.1-1.05-0.2-1.57c-0.52-0.89-0.32-1.39,0.71-1.56c0.76-0.13,1.56-0.04,2.34-0.07
		c0.46-0.02,0.92-0.08,1.38-0.12c1-0.09,2-0.18,3-0.29c1.01-0.12,2.01-0.25,3.01-0.41c2.58-0.4,4.77-1.53,6.8-3.22
		c2.51-2.1,4.52-4.66,6.84-6.93c0.52-0.51,1.06-1.01,1.54-1.64c-0.19,0.07-0.39,0.11-0.57,0.21c-1.26,0.71-2.51,1.42-3.76,2.14
		c-0.14,0.08-0.27,0.19-0.41,0.22c-1.6,0.29-2.83,1.27-4.12,2.16c-0.25,0.18-0.54,0.32-0.84,0.42c-2.28,0.75-4.61,1.29-6.99,1.51
		c-0.82,0.08-1.7-0.23-2.52-0.45c-1.47-0.39-2.82-1.14-4.37-1.31c-0.48-0.05-0.93-0.39-1.39-0.61c-1.14-0.55-2.25-0.94-3.56-0.33
		c-2.18,1.01-4.52,1.48-6.89,1.86c-1.16,0.18-2.29,0.49-3.44,0.75c-1.13,0.25-2.18,0.67-2.99,1.53c-0.58,0.61-1.17,0.5-1.7,0.04
		c-0.7,0.27-0.23,0.79-0.36,1.22c-0.21,0.04-0.45,0.15-0.64,0.1c-0.97-0.24-1.65,0.28-2.11,0.95c-0.76,1.09-1.44,2.24-2.01,3.44
		c-0.64,1.34-0.36,2.15,0.85,3.05c0.47,0.35,0.99,0.63,1.51,0.91c0.51,0.28,1.03,0.53,1.59,0.82c1.58-2.6,3.43-5.04,4.39-7.99
		c0.14-0.44,0.16-0.92,0.26-1.38c0.19-0.94,0.55-1.16,1.61-0.97c0,0.84,0.09,1.7-0.02,2.52c-0.2,1.47-0.5,2.92-0.81,4.37
		c-0.27,1.29-0.58,2.57-0.89,3.85c-0.08,0.34-0.15,0.72-0.36,0.98c-1.06,1.34-1.93,2.84-3.34,3.9c-1.68,1.27-3.01,2.93-4.52,4.39
		c-0.38,0.37-0.78,0.72-1.17,1.09c0.13,0.12,0.19,0.22,0.23,0.21c2.22-0.44,4.52-0.36,6.67-1.24c0.71-0.29,1.55-0.28,2.4-0.16
		c0.86,0.12,1.78-0.14,2.66-0.29c2.58-0.46,5.14-1.04,7.74-1.4c1.1-0.15,2.26,0.12,3.38,0.25c0.25,0.03,0.47,0.25,0.7,0.4
		c0.57,0.35,1.1,0.77,1.7,1.04c1.34,0.61,2.72,1.12,4.07,1.71c0.86,0.38,1.65,0.89,2.52,1.24c2.51,1.01,4.92,2.23,7.2,3.68
		c1.01,0.64,1.91,1.5,2.72,2.38c0.85,0.91,1.7,1.89,2.26,2.98c0.79,1.56,1.43,3.22,1.93,4.9c0.83,2.78,1.24,5.65,1.46,8.54
		c0.07,0.89,0.12,1.79,0.13,2.68c0.01,0.45,0.18,0.75,0.55,0.95c0.62,0.33,1.23,0.68,1.88,0.96c1.29,0.56,2.6,1.08,3.89,1.63
		c0.7,0.3,1.38,0.47,2.16,0.31c1.73-0.35,3.46-0.65,5.2-0.93c0.89-0.14,1.79-0.16,2.69-0.25c2.61-0.25,5.22-0.53,7.83-0.77
		c0.62-0.06,1.27-0.11,1.88,0.01c1.74,0.34,3.42-0.09,5.14-0.2c2.07-0.13,4.14-0.09,6.21-0.16c0.94-0.03,1.87-0.16,2.8-0.25
		c0.16-0.02,0.31-0.1,0.46-0.08c1.56,0.2,3.14-0.13,4.67,0.04c1.79,0.2,3.51-0.12,5.26-0.19c1.21-0.05,2.43-0.15,3.63-0.05
		c1.84,0.16,3.67,0.22,5.51-0.02c0.81-0.11,1.65-0.1,2.46,0c1.61,0.2,3.2,0.27,4.8-0.01c0.27-0.05,0.55-0.04,0.82-0.03
		c3.25,0.07,6.51,0.29,9.75,0.15c2.01-0.09,3.97,0.02,5.96,0.18c1.27,0.1,2.56-0.07,3.85-0.06c0.78,0,1.56,0.14,2.34,0.17
		c2.58,0.1,5.17,0.13,7.75,0.27c1.68,0.09,3.35,0.33,5.02,0.49c0.82,0.08,1.64,0.13,2.46,0.19c2.07,0.14,4.14,0.28,6.21,0.41
		c0.47,0.03,0.94,0.03,1.41,0.06c1.32,0.11,2.65,0.24,3.97,0.35c0.47,0.04,0.94,0.1,1.4,0.11c3.45,0.04,6.88,0.33,10.26,1.08
		c0.42,0.09,0.86,0.09,1.29,0.09c1.29,0,2.57,0.07,3.85,0.35c1.14,0.25,2.33,0.22,3.5,0.34c3.46,0.37,6.92,0.79,10.39,1.13
		c1.17,0.11,2.35,0.06,3.53,0.07c1.21,0,2.4,0.06,3.61,0.36c1.32,0.33,2.71,0.39,4.07,0.58c2.28,0.31,4.57,0.6,6.84,0.96
		c2.05,0.32,4.09,0.68,6.12,1.08c2.92,0.58,5.83,1.19,8.74,1.82c1.41,0.31,2.81,0.68,4.22,1.01c0.38,0.09,0.77,0.2,1.16,0.2
		c2.2,0.01,4.19,0.91,6.26,1.47c0.38,0.1,0.77,0.27,1.14,0.25c1.17-0.06,2.23,0.28,3.3,0.71c0.65,0.26,1.35,0.37,2.02,0.55
		c0.15,0.04,0.32,0.05,0.45,0.13c1.57,0.98,3.34,1.42,5.07,2c0.37,0.12,0.75,0.24,1.11,0.38c0.25,0.1,0.55,0.17,0.72,0.36
		c0.15,0.17,0.27,0.53,0.18,0.7c-0.08,0.18-0.47,0.36-0.66,0.31c-1.94-0.58-3.87-1.22-5.81-1.84c-0.44-0.14-0.88-0.29-1.32-0.43
		c-0.7-0.23-1.39-0.5-2.11-0.67c-0.88-0.21-1.77-0.32-2.66-0.48c-0.15-0.03-0.32-0.02-0.46-0.07c-2.88-1.04-5.91-1.46-8.87-2.12
		c-0.91-0.21-1.82-0.44-2.73-0.7c-2.27-0.65-4.61-0.89-6.92-1.27c-2.43-0.4-4.8-1.11-7.23-1.54c-1.25-0.22-2.5-0.66-3.82-0.46
		c-0.26,0.04-0.55-0.01-0.81-0.09c-1.85-0.59-3.74-0.81-5.67-0.82c-0.39,0-0.79,0-1.17-0.09c-2.72-0.68-5.49-0.77-8.28-0.86
		c-2.03-0.07-4.07-0.18-6.02-0.88c-0.22-0.08-0.46-0.13-0.69-0.14c-0.85-0.05-1.71-0.11-2.56-0.11c-2.91,0.01-5.73-0.74-8.62-0.92
		c-3.9-0.25-7.77-0.88-11.71-0.81c-1.61,0.03-3.26-0.07-4.88-0.48c-1.31-0.33-2.71-0.3-4.08-0.38c-1.83-0.11-3.66,0.11-5.5-0.33
		c-0.99-0.24-2.09-0.03-3.14-0.05c-0.94-0.02-1.87-0.1-2.81-0.14c-1.48-0.07-2.96-0.12-4.44-0.19c-0.74-0.04-1.48-0.1-2.23-0.13
		c-0.43-0.02-0.86-0.04-1.29-0.03c-1.29,0.04-2.58,0.16-3.87,0.12c-2.31-0.06-4.61-0.22-6.92-0.3c-2.42-0.08-4.85-0.1-7.27-0.15
		c-3.52-0.07-7.05-0.16-10.57-0.21c-0.62-0.01-1.25,0.08-1.87,0.13c-0.19,0.01-0.4,0.08-0.58,0.04c-2.02-0.41-4.05-0.04-6.07,0
		c-0.66,0.01-1.32-0.1-1.98-0.07c-2.54,0.09-5.07,0.21-7.61,0.31c-0.23,0.01-0.5,0.02-0.69-0.08c-0.88-0.46-1.75-0.3-2.63-0.05
		c-0.3,0.08-0.61,0.17-0.92,0.18c-2.69,0.1-5.39,0.18-8.09,0.27c-0.51,0.02-1.01,0.08-1.52,0.13c-1.05,0.1-2.09,0.27-3.14,0.31
		c-4.42,0.16-8.84,0.35-13.21,1.14c-0.49,0.09-1.01-0.01-1.5,0.05c-0.68,0.08-1.36,0.23-2.04,0.33c-0.84,0.13-1.68,0.27-2.53,0.35
		c-2.18,0.22-4.36,0.38-6.54,0.63c-0.69,0.08-1.35,0.4-2.04,0.53c-1.92,0.35-3.85,0.65-5.78,0.96c-2.16,0.34-4.33,0.61-6.48,1.02
		c-1.26,0.24-2.48,0.72-3.73,1.05c-1.66,0.44-3.33,0.84-4.99,1.25c-0.15,0.04-0.31,0.04-0.46,0.08c-1.83,0.55-3.67,1.11-5.5,1.65
		c-0.83,0.24-1.66,0.45-2.5,0.65c-1.48,0.36-2.96,0.69-4.34,1.38c-0.61,0.31-1.37,0.28-2.04,0.49c-2.31,0.73-4.61,1.53-6.92,2.25
		c-1.31,0.41-2.66,0.66-3.95,1.12c-2.73,0.96-5.43,2.01-8.14,3.01c-0.73,0.27-1.47,0.55-2.22,0.79c-1.01,0.32-2.05,0.54-2.89,1.25
		c-0.09,0.07-0.21,0.14-0.32,0.14c-1.31-0.02-2.36,0.79-3.56,1.11c-0.23,0.06-0.45,0.14-0.66,0.24c-3.02,1.41-6.01,2.86-9.05,4.21
		c-2.18,0.97-4.42,1.78-6.62,2.7c-1.15,0.49-2.27,1.05-3.39,1.61c-2.63,1.32-5.24,2.66-7.87,3.97c-2.21,1.1-4.44,2.16-6.64,3.26
		c-0.98,0.49-1.91,1.08-2.89,1.56c-4.04,1.99-8.1,3.94-12.13,5.95c-0.97,0.49-1.85,1.16-2.79,1.72c-1.52,0.9-3,1.87-4.58,2.63
		c-1.97,0.95-4.03,1.71-6.05,2.56c-1.01,0.43-1.98,0.92-3,1.32c-0.69,0.27-1.42,0.44-2.12,0.67c-2.84,0.92-5.51,2.24-8.22,3.46
		c-1.32,0.6-2.65,1.16-3.94,1.81c-1.33,0.67-2.6,1.43-3.91,2.14c-0.17,0.09-0.37,0.22-0.54,0.21c-0.33-0.02-0.74-0.04-0.95-0.24
		c-0.32-0.3-0.03-0.64,0.2-0.92c1.52-1.87,3.35-3.36,5.46-4.55c1.6-0.9,3.09-2,4.69-2.9c1.91-1.07,3.89-2.03,5.84-3.03
		c2.16-1.11,4.34-2.18,6.47-3.33c2.79-1.51,5.53-3.12,8.32-4.61c1.72-0.92,3.52-1.7,5.29-2.55c2.12-1.01,4.22-2.06,6.36-3.03
		c3.34-1.53,6.7-3.02,10.07-4.51c2.14-0.95,4.3-1.88,6.46-2.79c1.52-0.64,3.05-1.23,4.58-1.84c1.78-0.71,3.57-1.4,5.34-2.13
		c3.29-1.36,6.55-2.79,9.87-4.09c2.44-0.96,4.95-1.73,7.42-2.62c1.4-0.5,2.75-1.14,4.15-1.61c2.6-0.87,5.22-1.66,7.83-2.49
		c1.49-0.47,2.97-0.98,4.47-1.42c1.65-0.49,3.31-0.91,4.96-1.38c2.79-0.79,5.57-1.64,8.36-2.39c2.08-0.56,4.22-0.92,6.27-1.55
		c2.59-0.8,5.24-1.27,7.89-1.83c2.57-0.54,5.12-1.16,7.68-1.73c0.46-0.1,0.93-0.15,1.39-0.22c1.01-0.14,2.02-0.24,3.02-0.43
		c3.31-0.6,6.61-1.24,9.91-1.85C153.35,146.62,154.27,146.49,155.18,146.34z M113.04,115.23c1.02,0.46,2.02,0.95,3.06,1.36
		c0.61,0.24,1.27,0.43,1.92,0.47c0.75,0.05,1.34,0.31,1.95,0.7c0.78,0.51,1.62,0.93,2.45,1.37c0.52,0.27,1.08,0.47,1.6,0.74
		c2.16,1.09,4.32,2.19,6.64,2.94c1.34,0.43,2.68,0.88,4.02,1.3c1.19,0.37,2.42,0.65,3.59,1.06c0.9,0.31,1.6,0.92,2.21,1.69
		c0.7,0.89,1.53,1.67,2.28,2.51c1.13,1.24,2.37,2.41,3.32,3.77c1.03,1.46,1.78,3.12,2.66,4.69c0.13,0.24,0.28,0.47,0.42,0.71
		c0.04-1.31,0-2.56-0.17-3.79c-0.16-1.16-0.4-2.31-0.73-3.43c-0.43-1.46-0.94-2.9-1.52-4.31c-0.4-0.97-0.86-1.91-1.61-2.7
		c-1.76-1.86-3.74-3.41-6-4.62c-0.55-0.3-1.05-0.68-1.59-0.99c-0.26-0.15-0.56-0.26-0.85-0.36c-0.41-0.13-0.85-0.18-1.23-0.36
		c-1.45-0.67-2.88-1.39-4.33-2.06c-0.71-0.33-1.45-0.58-2.14-0.93c-0.97-0.49-1.91-1.05-2.87-1.58c-0.2-0.11-0.48-0.17-0.6-0.34
		c-0.38-0.54-0.88-0.42-1.38-0.31c-1.95,0.42-3.89,0.87-5.84,1.29c-0.57,0.12-1.21,0.02-1.72,0.25
		C115.46,114.74,114.31,115.01,113.04,115.23z M78.15,138.83c1.19-0.65,2.35-1.25,3.46-1.92c0.91-0.54,1.89-0.69,2.91-0.8
		c0.93-0.09,1.91-0.14,2.76-0.48c2.42-0.97,5-1.26,7.51-1.75c2.23-0.43,4.27-1.19,6.25-2.25c1.6-0.86,3.01-1.98,4.29-3.22
		c1.03-1,1.85-2.22,2.75-3.35c1.63-2.04,3.13-4.21,5.37-5.69c0.36-0.24,0.59-0.67,0.98-1.13c-0.54-0.29-0.95-0.51-1.35-0.73
		c-0.76-0.4-1.54-0.77-2.27-1.23c-0.32-0.2-0.52-0.58-0.84-0.95c-0.98,0.17-2.05,0.47-3.13,0.53c-0.94,0.05-1.71,0.14-1.96,1.22
		c-0.05,0.21-0.28,0.37-0.39,0.58c-0.67,1.24-1.41,2.44-1.98,3.72c-0.85,1.92-1.54,3.91-2.66,5.71c-0.83,1.34-1.92,2.36-3.5,2.74
		c-1.67,0.4-3.37,0.7-4.99,1.24c-2.52,0.85-4.98,1.85-7.45,2.83c-1.23,0.49-2.43,1.05-3.61,1.65c-0.47,0.24-0.98,0.59-1.24,1.02
		C78.65,137.28,78.44,138.08,78.15,138.83z M255.3,31.37c-0.03-0.11-0.05-0.23-0.08-0.34c-0.32-0.11-0.64-0.26-0.97-0.32
		c-3.53-0.69-6.69-2.36-9.92-3.82c-1.09-0.5-1.9-0.45-2.84,0.03c-2.25,1.15-4.51,2.3-6.75,3.46c-0.33,0.17-0.62,0.43-1,0.69
		c0.89,0.73,1.49,1.65,2.68,1.71c0.18,0.01,0.38,0.14,0.51,0.27c0.56,0.58,1.29,0.68,2.03,0.8c0.88,0.15,1.81,0.21,2.63,0.51
		c1.6,0.59,3.15,1.33,4.79,2.03c0.94-0.55,1.95-1.14,2.95-1.73c0.98-0.57,1.95-1.14,2.94-1.69C253.29,32.43,254.3,31.91,255.3,31.37
		z M253.29,17.87c-0.49,0.62-0.86,1.22-1.36,1.7c-1.67,1.6-3.59,2.89-5.47,4.22c-0.79,0.56-1.61,1.08-2.41,1.62
		c0.07,0.11,0.1,0.21,0.16,0.22c2.7,0.93,5.09,2.62,7.94,3.17c0.19,0.04,0.37,0.14,0.55,0.19c1.35,0.41,2.68,0.86,4.05,1.2
		c0.4,0.1,0.98,0.02,1.32-0.21c0.86-0.6,1.66-1.3,2.43-2.02c0.68-0.64,1.27-1.38,1.93-2.04c0.8-0.8,1.64-1.56,2.44-2.35
		c0.4-0.4,0.77-0.84,1.27-1.39C261.64,21.1,257.24,20.21,253.29,17.87z M123.28,84.11c-0.12,0.51-0.22,0.88-0.29,1.26
		c-0.09,0.5-0.16,1-0.22,1.51c-0.06,0.57-0.32,0.78-0.93,0.75c-0.73-0.03-1.53-0.05-2.18,0.21c-1.85,0.74-3.65,1.62-5.63,2.52
		c0.29,0.07,0.37,0.12,0.44,0.1c2.11-0.38,4.24-0.72,6.34-1.19c1.13-0.25,2.2-0.72,3.22-1.43c-0.33-0.35-0.6-0.64-0.93-1
		c0.49-0.26,0.9-0.41,1.22-0.66c0.92-0.71,0.84-1.31-0.21-1.78C123.91,84.31,123.69,84.25,123.28,84.11z M121.18,85.11
		c-1.3-0.6-2.65-0.81-3.83-0.5c-1.05,0.27-1.96,1.17-2.6,2.21C116.68,87.67,120.17,86.78,121.18,85.11z M155.76,85.14
		c2.28-0.82,2.81-2.17,1.99-5.04c-0.93,0.18-1.4,0.93-1.93,1.57C154.51,83.28,154.53,83.29,155.76,85.14z M132.1,100.47
		c-0.74-0.39-1.33-0.33-1.88-0.2c-0.24,0.06-0.49,0.37-0.59,0.63c-0.22,0.57-0.35,1.17-0.58,1.97
		C130.12,102.03,131.06,101.29,132.1,100.47z M211.9,22.54c0.79,0.37,1.52,0.26,2.1-0.18c0.37-0.28,0.37-0.81,0-1.26
		C213.04,21.2,212.32,21.59,211.9,22.54z M76.92,137.71c-0.44,0.95-1.14,1.7-0.87,2.82C77.41,139.86,77.66,139.11,76.92,137.71z
		 M199.45,24.81c0.63,0.04,1.01,0.13,1.36,0.06c0.25-0.05,0.64-0.32,0.64-0.49c0-0.3-0.19-0.68-0.42-0.86
		c-0.14-0.11-0.59,0.02-0.79,0.19C199.97,23.93,199.81,24.29,199.45,24.81z M150.61,144.22c0.58,0.05,1.07,0.09,1.73,0.14
		C151.27,143.39,151.18,143.38,150.61,144.22z M228.42,19.26c-0.93-0.03-1.08,0.13-0.87,1.01C227.94,20,228.39,19.83,228.42,19.26z
		 M215.82,17.24c0.45-0.35,0.84-0.51,0.76-1.04C215.79,16.15,215.79,16.15,215.82,17.24z M125.87,86.61
		c0.09,0.03,0.18,0.07,0.26,0.1c0.12-0.3,0.24-0.61,0.36-0.91c-0.08-0.03-0.16-0.06-0.25-0.1
		C126.12,86.01,125.99,86.31,125.87,86.61z"/>
	<path d="M122.43,79.74c-0.45,0.21-0.8,0.4-1.17,0.52c-0.05,0.02-0.33-0.36-0.29-0.42c0.23-0.33,0.51-0.62,0.78-0.92
		c-0.08-0.44-0.37-1.01-0.23-1.44c0.21-0.65,0.7-1.2,1.4-1.5c0.39-0.16,0.7-0.5,1.09-0.68c0.2-0.09,0.48-0.02,0.72-0.03
		c-0.05,0.25-0.03,0.57-0.18,0.73c-0.27,0.27-0.65,0.43-0.96,0.67c-0.9,0.71-0.97,1.1-0.29,2.04c0.3,0.42,0.41,0.83,0.24,1.32
		c-0.14,0.41-0.23,0.83-0.37,1.24c-0.06,0.18-0.14,0.42-0.28,0.5c-0.21,0.11-0.54,0.2-0.72,0.1c-0.13-0.07-0.22-0.53-0.12-0.67
		C122.4,80.73,122.59,80.26,122.43,79.74z"/>
	<path d="M119.34,78.7c0.18,0.65,0.3,1.04,0.42,1.48c-0.74,0.21-1.18-0.08-1.81-0.58C118.44,79.28,118.79,79.05,119.34,78.7z"/>
	<path d="M155.81,17.45c-0.53-0.17-0.88-0.22-1.17-0.39c-0.2-0.12-0.38-0.37-0.42-0.6c-0.02-0.11,0.29-0.41,0.45-0.4
		c0.27,0.01,0.61,0.12,0.78,0.31C155.62,16.57,155.64,16.92,155.81,17.45z"/>
	<path d="M129.51,75.25c-0.37,0.34-0.57,0.69-0.84,0.74c-0.42,0.08-0.6-0.31-0.61-0.67c-0.01-0.41,0.26-0.69,0.65-0.64
		C128.96,74.7,129.16,74.98,129.51,75.25z"/>
	<path d="M38.01,40.56c-0.2-0.35-0.36-0.51-0.36-0.66c0-0.38,0.18-0.7,0.61-0.69c0.11,0,0.34,0.29,0.31,0.38
		C38.47,39.88,38.27,40.14,38.01,40.56z"/>
	<path d="M115.62,62.58c0.01-1.09,0.14-1.14,1.44-0.62C116.57,62.18,116.14,62.36,115.62,62.58z"/>
	<path d="M106.4,81.55c-0.39,0.43-0.72,0.63-1.13,0.25c-0.07-0.07-0.08-0.34,0-0.41C105.63,81.01,105.99,81.08,106.4,81.55z"/>
	<path d="M25.24,157.17c-0.14-0.12-0.29-0.23-0.27-0.25c0.07-0.14,0.18-0.26,0.28-0.38c0.07,0.08,0.2,0.16,0.2,0.23
		C25.42,156.88,25.32,157,25.24,157.17z"/>
	<path d="M307.54,152.78c-0.13-0.12-0.23-0.21-0.33-0.3c0.09-0.09,0.19-0.27,0.27-0.26c0.11,0.02,0.22,0.15,0.29,0.26
		C307.78,152.52,307.65,152.65,307.54,152.78z"/>
	<path d="M241.98,0.3c-0.21,0-0.42,0-0.63,0c0.01-0.1,0.01-0.28,0.03-0.28c0.2-0.02,0.41-0.01,0.62-0.01
		C241.99,0.1,241.98,0.2,241.98,0.3z"/>
	<path d="M114.15,49.76c-0.09-0.12-0.2-0.2-0.2-0.27c0.01-0.08,0.13-0.14,0.2-0.21c0.07,0.07,0.19,0.14,0.2,0.22
		C114.35,49.56,114.24,49.65,114.15,49.76z"/>
	<path d="M124.62,76.71c0.12,0.14,0.23,0.22,0.28,0.33c0.02,0.04-0.15,0.22-0.18,0.21c-0.12-0.05-0.23-0.13-0.31-0.23
		C124.39,77,124.51,76.86,124.62,76.71z"/>
	<path d="M80.77,83.19c-0.2,0.08-0.33,0.13-0.45,0.18c-0.03-0.09-0.11-0.2-0.08-0.26c0.05-0.08,0.17-0.16,0.26-0.17
		C80.56,82.94,80.64,83.06,80.77,83.19z"/>
	<path d="M108.84,10.2c-0.11,0.02-0.22,0.05-0.32,0.04c-0.04,0-0.06-0.11-0.09-0.18c0.1-0.03,0.2-0.07,0.3-0.07
		C108.76,9.99,108.79,10.1,108.84,10.2z"/>
	<path d="M229.66,8.99c-0.16,0.02-0.33,0.05-0.49,0.07c-0.01-0.06-0.03-0.12-0.04-0.18c0.16-0.05,0.33-0.1,0.49-0.16
		C229.63,8.82,229.64,8.9,229.66,8.99z"/>
	<path d="M123.1,160.44c-0.08-0.07-0.13-0.11-0.18-0.16c0.07-0.07,0.13-0.15,0.2-0.21c0.01-0.01,0.14,0.1,0.13,0.12
		C123.22,160.29,123.16,160.36,123.1,160.44z"/>
	<path d="M202.3,128.73c-0.04,0.1-0.06,0.17-0.09,0.23c-0.09-0.04-0.19-0.08-0.27-0.13c-0.02-0.01,0.05-0.18,0.07-0.18
		C202.11,128.66,202.2,128.7,202.3,128.73z"/>
	<path d="M205.89,111.34c-0.06,0.1-0.12,0.22-0.13,0.22c-0.09-0.03-0.17-0.09-0.26-0.14c0.04-0.06,0.08-0.18,0.11-0.17
		C205.7,111.25,205.79,111.3,205.89,111.34z"/>
	<path d="M74.75,147.38c-0.03,0.06-0.07,0.11-0.1,0.16c-0.05-0.04-0.1-0.08-0.14-0.13c-0.01-0.01,0.04-0.09,0.05-0.09
		C74.62,147.34,74.69,147.36,74.75,147.38z"/>
	<path d="M42.93,102.04c0.05,0.03,0.11,0.07,0.16,0.1c-0.04,0.05-0.08,0.1-0.13,0.14c-0.01,0.01-0.09-0.04-0.09-0.05
		C42.89,102.17,42.91,102.11,42.93,102.04z"/>
	<path d="M126.53,135.48c0.04,0.05,0.12,0.1,0.12,0.15c0,0.06-0.06,0.13-0.09,0.19c-0.06-0.06-0.12-0.12-0.19-0.17
		C126.42,135.6,126.47,135.55,126.53,135.48z"/>
	<path d="M72.96,64.31c-0.04-0.05-0.07-0.1-0.11-0.15c0.05-0.03,0.11-0.1,0.16-0.09c0.04,0.01,0.07,0.09,0.11,0.14
		C73.07,64.24,73.01,64.28,72.96,64.31z"/>
	<path d="M236.06,30.44c0.49-0.14,0.78-0.31,1.02-0.26c0.52,0.11,1.06,0.28,1.53,0.54c0.74,0.42,1.41,0.98,2.16,1.39
		c0.61,0.33,1.27,0.56,1.94,0.76c0.9,0.26,1.82,0.44,2.72,0.68c0.26,0.07,0.51,0.2,0.72,0.37c0.28,0.23,0.15,0.62-0.2,0.72
		c-0.11,0.03-0.23,0.04-0.35,0.02c-1.61-0.29-3.22-0.57-4.83-0.89c-0.41-0.08-0.85-0.25-1.18-0.5
		C238.48,32.42,237.41,31.53,236.06,30.44z"/>
	<path d="M243.12,27.52c0.27,0.53,0.48,0.8,0.52,1.08c0.05,0.32-0.14,0.69-0.5,0.58c-0.25-0.08-0.49-0.45-0.55-0.73
		C242.55,28.26,242.83,28,243.12,27.52z"/>
	<path d="M246.06,29.16c0.56,0.07,0.82,0.28,0.68,0.64c-0.09,0.24-0.37,0.4-0.57,0.6c-0.18-0.23-0.48-0.45-0.51-0.69
		C245.65,29.52,245.96,29.29,246.06,29.16z"/>
	<path d="M240.45,29.36c0.26-0.14,0.49-0.34,0.57-0.29c0.31,0.18,0.58,0.43,0.84,0.69c0.04,0.04-0.12,0.38-0.15,0.37
		c-0.32-0.06-0.63-0.14-0.93-0.26C240.67,29.82,240.61,29.63,240.45,29.36z"/>
	<path d="M242.52,30.98c0.16,0.26,0.37,0.46,0.35,0.62c-0.02,0.17-0.27,0.3-0.42,0.45c-0.16-0.19-0.38-0.36-0.45-0.58
		C241.98,31.39,242.29,31.19,242.52,30.98z"/>
	<path d="M250.47,31.78c-0.24,0.16-0.45,0.36-0.52,0.32c-0.19-0.11-0.32-0.32-0.47-0.48c0.14-0.09,0.31-0.28,0.43-0.25
		C250.08,31.4,250.23,31.58,250.47,31.78z"/>
	<path d="M248.24,30.5c0.42,0.13,0.43,0.41,0.24,0.71c-0.04,0.07-0.32,0.09-0.38,0.03C247.86,30.95,247.91,30.69,248.24,30.5z"/>
	<path d="M247.02,32.32c-0.25-0.02-0.5-0.04-0.75-0.06c0.02-0.2,0.01-0.33,0.04-0.34c0.32-0.1,0.32-0.09,0.75,0.15
		C247.04,32.16,247.03,32.24,247.02,32.32z"/>
	<path d="M248.83,33.36c-0.15-0.25-0.33-0.43-0.29-0.54c0.03-0.12,0.26-0.23,0.42-0.26c0.07-0.01,0.26,0.22,0.25,0.3
		C249.17,33.01,249.01,33.13,248.83,33.36z"/>
	<path d="M243.93,30.87c-0.06,0.02-0.13,0.06-0.18,0.04c-0.04-0.01-0.04-0.11-0.06-0.17c0.06-0.02,0.13-0.06,0.18-0.04
		C243.9,30.71,243.91,30.81,243.93,30.87z"/>
	<path d="M263.84,23.09c-0.1,0.71-0.6,1.05-1.09,1.35c-0.68,0.43-1.2,0.96-1.58,1.68c-0.22,0.42-0.64,0.78-1.06,1.04
		c-0.81,0.49-1.61,0.94-2.23,1.68c-0.53,0.63-1.12,0.62-2.03,0.22c-2.03-0.91-4.07-1.8-6.11-2.68c-0.82-0.35-1.67-0.62-2.49-0.98
		c-0.84-0.36-0.91-0.93-0.14-1.46c1.22-0.85,2.48-1.63,3.72-2.43c0.59-0.38,1.2-0.74,1.76-1.15c1.01-0.73,1.67-0.8,2.65-0.06
		c1.34,1.02,2.97,1.14,4.52,1.53c1.21,0.31,2.42,0.61,3.62,0.93C263.55,22.81,263.69,22.98,263.84,23.09z M247.95,24.48
		c3,1.18,5.89,2.32,8.65,3.41c2.27-0.99,3.69-2.85,5.46-4.46c-1.49-0.81-3.1-0.59-4.49-1.28c-1.09-0.55-2.43-0.58-3.33-1.46
		C252.13,21.96,250.08,23.19,247.95,24.48z"/>
</g>
</svg>
